<svg version="1.1" id="Layer_1" xmlns="http://www.w3.org/2000/svg" xmlns:xlink="http://www.w3.org/1999/xlink" x="0px" y="0px"
	 width="100%" viewBox="0 0 1024 1024" enable-background="new 0 0 1024 1024" xml:space="preserve">
<path fill="#424242" opacity="1.000000" stroke="none" 
	d="
M957.000000,1025.000000 
	C953.307068,1025.000000 949.614197,1025.000000 945.460571,1024.531494 
	C944.480957,1015.602173 944.976807,1006.929382 943.262512,998.717957 
	C936.762207,967.581726 930.339600,936.389526 922.374573,905.609863 
	C914.430969,874.913086 904.310608,844.836487 883.282227,819.965820 
	C876.024597,811.382080 867.525269,804.364685 855.686035,804.017883 
	C850.004456,803.851440 844.228271,805.103455 838.577637,806.156860 
	C831.638306,807.450562 826.571411,805.322998 821.815125,800.018188 
	C817.346497,795.034058 811.716980,791.072937 806.485779,786.799377 
	C804.569824,785.234131 802.382629,783.974609 800.228943,782.731934 
	C795.213013,779.837830 790.437988,776.154602 785.043762,774.350891 
	C758.624878,765.516418 732.128906,767.584534 705.951050,775.529358 
	C693.076294,779.436829 680.526001,784.410828 667.818054,788.871582 
	C664.364014,790.084045 660.832275,791.081055 657.401489,792.353088 
	C631.650513,801.901123 606.293945,812.731873 580.073059,820.733398 
	C552.232483,829.229126 523.573486,835.040344 495.277802,842.047729 
	C461.332336,850.454346 427.332672,858.652466 393.478821,867.413757 
	C378.497070,871.291077 363.864502,876.501892 348.961456,880.710876 
	C345.623657,881.653564 341.507446,881.877075 338.279053,880.817871 
	C324.200958,876.198975 310.417969,870.679688 296.335693,866.074890 
	C282.897583,861.680664 269.394043,857.234314 255.615082,854.185974 
	C224.551590,847.313843 193.177383,841.829834 162.162216,834.760498 
	C135.524979,828.689087 108.886627,821.973083 86.803658,804.363464 
	C75.001495,794.952026 61.316216,787.801636 51.977238,775.423462 
	C48.968430,771.435425 46.435017,766.928955 42.828571,763.581299 
	C31.363029,752.938416 24.492319,739.221191 16.437326,726.226624 
	C11.840451,718.810852 6.181009,712.053711 1.000000,705.000000 
	C1.000000,675.979126 1.000000,646.958191 1.283108,617.652649 
	C4.102044,622.712708 7.105753,627.893555 9.049560,633.445557 
	C11.241740,639.706970 11.849261,646.549500 14.260263,652.702698 
	C19.836342,666.933655 26.080297,680.903015 32.071484,694.970764 
	C32.461414,695.886292 32.972374,696.755554 33.480804,697.614563 
	C39.156120,707.202942 44.684498,716.883545 50.589909,726.328308 
	C53.653873,731.228699 57.149399,735.911743 60.878635,740.331299 
	C66.455772,746.940735 72.327782,753.308716 78.230743,759.633484 
	C83.216125,764.975159 87.755684,771.073975 93.654625,775.160156 
	C113.895027,789.180908 135.790207,800.313782 159.614731,806.723022 
	C182.109467,812.774536 204.958893,817.511841 227.665924,822.768311 
	C241.607162,825.995483 255.611343,828.957886 269.517853,832.325745 
	C280.987488,835.103394 292.404816,838.127686 303.756134,841.356201 
	C319.580109,845.856750 335.315613,850.667969 351.104431,855.293518 
	C353.014893,855.853271 355.022217,856.080872 356.983002,856.470642 
	C362.284576,857.524414 367.165253,856.609680 371.855133,853.831238 
	C376.720490,850.948853 381.520447,847.537476 386.825226,845.906128 
	C396.574036,842.908142 400.941650,835.367737 404.936676,827.216553 
	C406.595428,823.832092 405.847656,821.062683 402.042145,819.567505 
	C396.930725,817.559143 391.678589,815.824341 386.782806,813.379456 
	C383.037598,811.509033 378.868317,809.397827 376.423157,806.214355 
	C368.434387,795.813477 360.939728,785.012390 353.640869,774.107056 
	C342.709839,757.774658 331.964203,741.313843 321.391541,724.746887 
	C295.675079,684.450256 270.379791,643.881897 244.360123,603.782898 
	C230.859665,582.977356 216.244598,562.891785 202.021133,542.559265 
	C175.142517,504.136139 145.440887,468.182770 109.333939,437.947815 
	C93.568146,424.745911 76.667007,413.523865 55.233501,412.480621 
	C45.482952,412.006073 36.249073,414.181000 27.707563,419.575104 
	C18.427601,425.435547 13.037273,434.331512 7.212786,443.051544 
	C5.504130,445.609680 3.090520,447.696930 1.000000,450.000000 
	C1.000000,420.979095 1.000000,391.958221 1.366805,362.405762 
	C4.756848,360.521637 7.776426,359.160828 10.804232,357.818573 
	C14.748361,356.070099 18.576910,353.948792 22.666965,352.660034 
	C46.733234,345.077118 67.426140,353.242310 85.967140,367.800446 
	C110.745140,387.255920 131.638947,410.684784 149.898376,436.213806 
	C171.302902,466.140015 192.515854,496.270569 212.283356,527.286682 
	C256.960388,597.387024 300.605896,668.144043 344.893921,738.493591 
	C353.798492,752.638062 361.570007,767.974121 376.634491,777.035645 
	C380.323212,779.254517 384.727448,781.622131 388.806244,781.628418 
	C409.272980,781.659912 429.794220,781.699097 450.195526,780.283508 
	C479.009979,778.284241 507.138550,771.917725 535.126404,764.834839 
	C567.458679,756.652649 599.513184,747.800903 630.253784,734.601868 
	C640.512207,730.197266 647.378052,722.162537 654.632019,714.403137 
	C655.581482,713.387512 655.954773,711.730042 656.333923,710.300598 
	C659.818848,697.158386 656.327820,685.028015 649.408691,674.158875 
	C635.263916,651.939087 615.770020,634.717407 594.925476,619.039673 
	C561.323792,593.766907 525.492615,571.857361 489.491058,550.259521 
	C429.750488,514.420410 368.986786,480.404236 305.766479,451.042633 
	C279.504761,438.845825 252.554291,428.131683 225.913834,416.750793 
	C221.785461,414.987183 217.633865,413.277985 213.503586,411.518768 
	C205.314850,408.031006 197.133545,404.525879 188.735474,400.771729 
	C182.989761,392.357086 177.457748,384.198669 172.282867,375.940674 
	C174.457077,375.838898 176.351288,375.495575 178.079437,375.886475 
	C198.518219,380.509888 219.244247,384.195862 239.286606,390.168945 
	C278.922180,401.981293 315.290375,421.450012 351.274261,441.387146 
	C397.870239,467.204041 444.066711,493.741730 490.478729,519.891785 
	C492.442688,520.998352 494.845612,521.325684 497.102631,522.403320 
	C497.420074,524.882568 497.678955,526.974609 498.025604,529.314209 
	C503.144257,531.806274 508.112701,531.997437 513.246582,528.900269 
	C514.626465,527.076416 515.747375,525.462158 517.017029,523.681274 
	C517.369690,523.297241 517.585144,523.091797 518.091064,522.759521 
	C519.234375,522.058838 520.098633,521.497070 521.032166,521.293335 
	C523.134766,523.910950 524.777649,526.811707 527.264771,528.326050 
	C543.482422,538.200439 560.034729,547.528198 576.195740,557.492004 
	C625.820801,588.087524 675.135742,619.190491 724.963989,649.449341 
	C742.754822,660.253052 761.908691,668.659912 782.101379,674.294922 
	C805.846008,680.921265 829.620789,687.440186 853.349792,694.121643 
	C865.961792,697.672913 877.713257,703.001343 887.954956,711.404846 
	C891.814819,714.571899 892.149414,717.465393 889.173096,721.588684 
	C884.401733,728.198730 879.983459,735.084106 875.743530,742.052429 
	C869.530090,752.264038 869.457947,761.756165 877.168335,772.007263 
	C886.710754,784.694214 895.785828,797.971924 903.157898,811.995728 
	C914.013428,832.646179 922.364746,854.570496 928.165405,877.194031 
	C935.855652,907.187683 943.161804,937.316345 949.313660,967.654541 
	C953.137878,986.513733 954.521118,1005.867981 957.000000,1025.000000 
z"/>
<path fill="#303030" opacity="1.000000" stroke="none" 
	d="
M1.000000,23.000000 
	C1.000000,15.666574 1.000000,8.333148 1.000000,1.000000 
	C2.728201,1.000000 4.364629,1.000000 6.628490,1.314575 
	C14.293893,9.585983 20.666094,18.285196 28.521790,25.330208 
	C41.130901,36.638100 54.757988,46.806942 67.887314,57.539791 
	C81.456688,68.632362 96.438942,76.977371 113.350662,81.850662 
	C147.574753,91.712708 182.794220,94.534477 218.087738,95.757805 
	C238.170303,96.453903 258.375458,95.261375 278.457245,93.908241 
	C302.700562,92.274696 326.962067,90.270821 351.052979,87.165092 
	C387.226685,82.501671 423.216278,76.425667 459.362762,71.530693 
	C499.804749,66.054008 540.352234,61.396294 581.281738,62.021564 
	C604.105408,62.370243 626.488586,65.699730 647.851685,73.929741 
	C659.843506,78.549522 669.019653,87.288269 675.650024,98.083115 
	C683.596436,111.020409 685.488525,125.919998 686.971680,140.711075 
	C689.878174,169.696030 691.472961,198.873352 700.473816,226.897644 
	C705.482727,242.492767 713.589905,256.465790 724.325806,268.649139 
	C742.399231,289.159241 765.482422,303.398712 788.698486,317.091949 
	C814.927917,332.562500 841.713562,347.086670 866.628967,364.697235 
	C868.662598,366.134613 870.766541,367.510254 872.618408,369.160736 
	C882.653320,378.103973 893.039185,386.540131 901.811646,396.979187 
	C914.904480,412.559326 924.103210,429.637970 926.697083,449.866547 
	C929.217590,469.523285 922.628296,486.487854 907.640991,498.885468 
	C889.541016,513.857910 867.541199,516.911743 844.812683,514.391235 
	C802.744385,509.726135 763.591675,494.866882 725.123474,478.349274 
	C690.505920,463.484985 656.789062,446.565857 625.435608,425.545807 
	C606.098999,412.582214 587.251038,398.774963 569.049438,384.260803 
	C543.711060,364.055664 516.893860,346.744232 486.190887,335.891479 
	C448.753479,322.658295 409.967041,315.250397 370.763641,310.177032 
	C334.105927,305.433075 297.360992,301.039001 260.526917,298.076050 
	C226.044495,295.302246 191.405594,294.278625 156.813919,293.145081 
	C141.028839,292.627869 125.186661,293.565308 109.382446,294.162384 
	C106.219711,294.281921 103.111710,295.850067 99.687149,296.612915 
	C89.589134,290.097595 79.782433,283.719574 70.247513,277.072876 
	C72.366920,276.169952 74.180351,275.122101 76.067535,274.966034 
	C92.983490,273.566895 109.899605,271.486603 126.840477,271.227448 
	C154.139648,270.809845 181.469498,271.221558 208.764496,272.025970 
	C238.202164,272.893616 267.615906,274.589050 297.037781,275.972534 
	C324.297424,277.254303 351.545044,278.841064 378.814209,279.858368 
	C413.077850,281.136688 447.358032,281.972717 481.631073,282.998444 
	C490.107666,283.252136 498.582886,283.635376 507.061279,283.727081 
	C531.374939,283.990234 555.665894,283.764069 579.639038,278.882996 
	C603.125977,274.100891 620.273010,261.016266 630.017090,239.094910 
	C641.139221,214.073471 647.130249,187.681686 649.798645,160.447876 
	C651.300476,145.120148 652.724243,129.647110 648.733032,114.753716 
	C646.637573,106.934853 642.324219,98.400612 636.380127,93.195404 
	C623.977112,82.334190 608.891785,75.718323 592.045044,74.194435 
	C584.585510,73.519676 577.144287,72.340752 569.674316,72.134796 
	C538.001648,71.261559 506.372223,72.109207 474.958588,76.563782 
	C448.075256,80.375954 421.335480,85.286049 394.394592,88.587341 
	C350.440002,93.973465 306.862640,102.787201 262.467743,104.188622 
	C238.375885,104.949142 214.225449,105.365074 190.145966,104.576431 
	C166.634705,103.806389 143.472778,99.411255 120.668739,93.570847 
	C106.817032,90.023254 92.868561,86.647141 79.351662,82.052299 
	C63.517921,76.669884 50.570648,66.205170 38.021896,55.456154 
	C30.199736,48.755844 22.729984,41.645828 15.010248,34.823589 
	C10.432431,30.777990 5.676077,26.934414 1.000000,23.000000 
z"/>
<path fill="#252525" opacity="1.000000" stroke="none" 
	d="
M1.000000,247.000000 
	C1.000000,186.979111 1.000000,126.958214 1.318361,66.596909 
	C3.185833,67.226669 4.779692,68.132767 6.276362,69.178032 
	C12.967903,73.851357 19.143129,79.586868 26.404226,83.056587 
	C43.056156,91.013748 59.774059,99.332611 77.302238,104.841087 
	C104.740921,113.464081 132.642807,120.803368 161.569763,123.242844 
	C200.377991,126.515633 239.104599,125.716583 277.732208,121.276360 
	C296.743927,119.090965 315.622986,115.752846 334.563568,112.946510 
	C364.384094,108.528160 394.299194,104.662476 424.003815,99.568810 
	C462.098083,93.036507 500.272552,90.240753 538.880371,92.885086 
	C553.829773,93.908997 566.853516,98.640968 577.435303,109.288338 
	C579.424011,111.289375 580.923645,114.165642 581.708435,116.907272 
	C585.271240,129.353668 581.122253,140.728683 575.506470,151.444244 
	C563.623230,174.118774 544.618225,189.660858 522.350769,201.159210 
	C503.627594,210.827408 483.484009,217.027496 462.911469,221.456833 
	C411.730103,232.476349 359.709351,235.674454 307.562561,236.854935 
	C283.939423,237.389709 260.280579,236.359375 236.638153,236.025009 
	C213.162170,235.692993 189.684189,234.970856 166.211227,235.111099 
	C144.748749,235.239334 123.269310,235.880936 101.838844,237.054352 
	C80.907707,238.200424 60.007542,240.079865 39.135368,242.072876 
	C26.383024,243.290527 13.709128,245.329758 1.000000,247.000000 
z"/>
<path fill="#363636" opacity="1.000000" stroke="none" 
	d="
M18.000000,1.000000 
	C20.700630,1.000000 23.401258,1.000000 26.674175,1.323194 
	C35.149422,14.083168 46.200172,23.325775 57.892197,31.937206 
	C67.527077,39.033504 77.208855,46.073044 86.675255,53.389511 
	C100.646461,64.187698 115.888596,72.688759 132.818039,77.551086 
	C159.060486,85.088234 186.134048,87.973602 213.290176,88.822289 
	C243.749146,89.774185 274.303040,89.725731 304.603760,85.962990 
	C343.262054,81.162407 381.843750,75.709999 420.399597,70.131775 
	C446.104248,66.412842 471.646606,61.549187 497.374817,58.024231 
	C514.840088,55.631367 532.487366,54.485424 550.080261,53.132957 
	C562.521301,52.176548 575.009399,51.272064 587.472900,51.317982 
	C601.763550,51.370628 616.075073,52.168327 630.332336,53.242954 
	C648.583069,54.618599 666.350220,58.411907 682.518860,67.414497 
	C689.151794,71.107681 695.896606,75.095192 701.390808,80.231956 
	C711.859680,90.019600 717.661987,102.903519 721.545898,116.490936 
	C726.673401,134.429184 731.000427,152.597855 736.218445,170.508163 
	C742.830322,193.202805 753.896301,213.791031 769.356873,231.567429 
	C788.735718,253.848999 812.135620,271.586609 837.146423,287.107941 
	C864.730896,304.226410 892.833557,320.522125 920.196472,337.981903 
	C944.982910,353.797760 968.324402,371.603638 985.389465,396.140900 
	C991.642334,405.131805 997.632629,414.417480 1002.640259,424.136719 
	C1010.716125,439.810791 1015.406250,456.744202 1017.196777,474.262207 
	C1018.395203,485.987549 1019.071899,497.872986 1018.616333,509.633850 
	C1018.032166,524.713501 1011.758301,538.115540 1002.500427,549.836670 
	C990.328613,565.247192 977.370911,580.038025 965.238037,595.477905 
	C957.657776,605.124329 947.434387,609.141296 936.095581,611.123108 
	C906.325500,616.326538 876.707275,614.115112 847.146606,608.957031 
	C809.979309,602.471680 775.477478,588.409241 741.913330,571.856567 
	C717.262146,559.699524 692.741272,547.237427 668.568237,534.161011 
	C631.221497,513.958191 593.792297,493.843567 557.212158,472.308746 
	C528.525574,455.420898 501.120392,436.363037 473.054626,418.411926 
	C449.629669,403.429047 426.830597,387.244995 402.408051,374.092957 
	C358.187775,350.279510 309.726135,338.948029 260.496674,331.084167 
	C216.657150,324.081268 172.446198,321.565918 127.791061,321.788879 
	C121.596939,315.768768 115.676437,309.943878 110.165695,303.986664 
	C118.528847,303.237091 126.490593,302.007874 134.434082,302.116302 
	C159.069778,302.452545 183.725159,302.793335 208.322021,304.094238 
	C230.422241,305.263123 252.564301,306.878815 274.491730,309.780182 
	C305.691711,313.908417 336.802307,318.890442 367.783081,324.444855 
	C396.536346,329.599945 424.565033,337.712067 451.624878,348.895081 
	C478.479309,359.993225 502.650391,375.633514 525.575256,393.242706 
	C555.344177,416.108978 586.135986,437.424652 618.611023,456.282318 
	C650.037842,474.531281 682.255066,491.229919 715.368408,506.220581 
	C750.753540,522.239685 786.307190,537.823608 823.894714,548.075012 
	C851.546509,555.616577 879.515564,558.312317 907.865540,552.116882 
	C922.672913,548.880981 935.361145,541.269226 945.498413,530.533936 
	C965.485840,509.367676 969.472595,483.176544 965.209412,455.548889 
	C960.454956,424.736908 943.728882,400.212494 921.072815,379.902985 
	C906.994751,367.283020 891.961914,355.444855 876.145935,345.110168 
	C849.125427,327.454102 821.189514,311.194580 793.567261,294.465485 
	C776.096313,283.884369 760.159424,271.447906 746.082275,256.613617 
	C731.968933,241.741241 722.041382,224.383850 715.337585,205.138992 
	C707.731689,183.304108 704.138550,160.560501 700.991028,137.782364 
	C697.806946,114.739349 691.432495,93.461868 671.966980,78.504028 
	C669.611938,76.694382 667.289001,74.425163 664.573364,73.572571 
	C650.302063,69.092072 636.126465,63.893429 621.509521,61.020905 
	C597.515564,56.305603 573.055237,56.872616 548.796936,59.004993 
	C517.454651,61.760071 486.119934,64.850479 454.910736,68.811172 
	C409.461609,74.579010 364.208893,81.948311 318.713562,87.278435 
	C291.144958,90.508308 263.297729,91.826073 235.534119,92.737465 
	C220.649414,93.226089 205.640823,91.407074 190.753677,89.956741 
	C174.695679,88.392357 158.642761,86.486923 142.716858,83.926453 
	C121.176476,80.463303 101.361176,72.363419 83.837524,59.190746 
	C69.479820,48.397934 54.829044,37.915634 41.224537,26.228956 
	C32.613350,18.831694 25.683781,9.476857 18.000000,1.000000 
z"/>
<path fill="#2C2C2C" opacity="1.000000" stroke="none" 
	d="
M1.000000,247.468567 
	C13.709128,245.329758 26.383024,243.290527 39.135368,242.072876 
	C60.007542,240.079865 80.907707,238.200424 101.838844,237.054352 
	C123.269310,235.880936 144.748749,235.239334 166.211227,235.111099 
	C189.684189,234.970856 213.162170,235.692993 236.638153,236.025009 
	C260.280579,236.359375 283.939423,237.389709 307.562561,236.854935 
	C359.709351,235.674454 411.730103,232.476349 462.911469,221.456833 
	C483.484009,217.027496 503.627594,210.827408 522.350769,201.159210 
	C544.618225,189.660858 563.623230,174.118774 575.506470,151.444244 
	C581.122253,140.728683 585.271240,129.353668 581.708435,116.907272 
	C580.923645,114.165642 579.424011,111.289375 577.435303,109.288338 
	C566.853516,98.640968 553.829773,93.908997 538.880371,92.885086 
	C500.272552,90.240753 462.098083,93.036507 424.003815,99.568810 
	C394.299194,104.662476 364.384094,108.528160 334.563568,112.946510 
	C315.622986,115.752846 296.743927,119.090965 277.732208,121.276360 
	C239.104599,125.716583 200.377991,126.515633 161.569763,123.242844 
	C132.642807,120.803368 104.740921,113.464081 77.302238,104.841087 
	C59.774059,99.332611 43.056156,91.013748 26.404226,83.056587 
	C19.143129,79.586868 12.967903,73.851357 6.276362,69.178032 
	C4.779692,68.132767 3.185833,67.226669 1.318361,66.128250 
	C1.000000,51.979103 1.000000,37.958210 1.000000,23.468658 
	C5.676077,26.934414 10.432431,30.777990 15.010248,34.823589 
	C22.729984,41.645828 30.199736,48.755844 38.021896,55.456154 
	C50.570648,66.205170 63.517921,76.669884 79.351662,82.052299 
	C92.868561,86.647141 106.817032,90.023254 120.668739,93.570847 
	C143.472778,99.411255 166.634705,103.806389 190.145966,104.576431 
	C214.225449,105.365074 238.375885,104.949142 262.467743,104.188622 
	C306.862640,102.787201 350.440002,93.973465 394.394592,88.587341 
	C421.335480,85.286049 448.075256,80.375954 474.958588,76.563782 
	C506.372223,72.109207 538.001648,71.261559 569.674316,72.134796 
	C577.144287,72.340752 584.585510,73.519676 592.045044,74.194435 
	C608.891785,75.718323 623.977112,82.334190 636.380127,93.195404 
	C642.324219,98.400612 646.637573,106.934853 648.733032,114.753716 
	C652.724243,129.647110 651.300476,145.120148 649.798645,160.447876 
	C647.130249,187.681686 641.139221,214.073471 630.017090,239.094910 
	C620.273010,261.016266 603.125977,274.100891 579.639038,278.882996 
	C555.665894,283.764069 531.374939,283.990234 507.061279,283.727081 
	C498.582886,283.635376 490.107666,283.252136 481.631073,282.998444 
	C447.358032,281.972717 413.077850,281.136688 378.814209,279.858368 
	C351.545044,278.841064 324.297424,277.254303 297.037781,275.972534 
	C267.615906,274.589050 238.202164,272.893616 208.764496,272.025970 
	C181.469498,271.221558 154.139648,270.809845 126.840477,271.227448 
	C109.899605,271.486603 92.983490,273.566895 76.067535,274.966034 
	C74.180351,275.122101 72.366920,276.169952 69.894531,276.916565 
	C62.185452,274.666931 55.215935,271.846558 47.993134,270.037354 
	C32.463467,266.147430 16.736921,266.090271 1.000000,269.000000 
	C1.000000,261.979065 1.000000,254.958099 1.000000,247.468567 
z"/>
<path fill="#3E3E3E" opacity="1.000000" stroke="none" 
	d="
M1.000000,450.468658 
	C3.090520,447.696930 5.504130,445.609680 7.212786,443.051544 
	C13.037273,434.331512 18.427601,425.435547 27.707563,419.575104 
	C36.249073,414.181000 45.482952,412.006073 55.233501,412.480621 
	C76.667007,413.523865 93.568146,424.745911 109.333939,437.947815 
	C145.440887,468.182770 175.142517,504.136139 202.021133,542.559265 
	C216.244598,562.891785 230.859665,582.977356 244.360123,603.782898 
	C270.379791,643.881897 295.675079,684.450256 321.391541,724.746887 
	C331.964203,741.313843 342.709839,757.774658 353.640869,774.107056 
	C360.939728,785.012390 368.434387,795.813477 376.423157,806.214355 
	C378.868317,809.397827 383.037598,811.509033 386.782806,813.379456 
	C391.678589,815.824341 396.930725,817.559143 402.042145,819.567505 
	C405.847656,821.062683 406.595428,823.832092 404.936676,827.216553 
	C400.941650,835.367737 396.574036,842.908142 386.825226,845.906128 
	C381.520447,847.537476 376.720490,850.948853 371.855133,853.831238 
	C367.165253,856.609680 362.284576,857.524414 356.983002,856.470642 
	C355.022217,856.080872 353.014893,855.853271 351.104431,855.293518 
	C335.315613,850.667969 319.580109,845.856750 303.756134,841.356201 
	C292.404816,838.127686 280.987488,835.103394 269.517853,832.325745 
	C255.611343,828.957886 241.607162,825.995483 227.665924,822.768311 
	C204.958893,817.511841 182.109467,812.774536 159.614731,806.723022 
	C135.790207,800.313782 113.895027,789.180908 93.654625,775.160156 
	C87.755684,771.073975 83.216125,764.975159 78.230743,759.633484 
	C72.327782,753.308716 66.455772,746.940735 60.878635,740.331299 
	C57.149399,735.911743 53.653873,731.228699 50.589909,726.328308 
	C44.684498,716.883545 39.156120,707.202942 33.480804,697.614563 
	C32.972374,696.755554 32.461414,695.886292 32.071484,694.970764 
	C26.080297,680.903015 19.836342,666.933655 14.260263,652.702698 
	C11.849261,646.549500 11.241740,639.706970 9.049560,633.445557 
	C7.105753,627.893555 4.102044,622.712708 1.283108,617.183960 
	C1.000000,561.645752 1.000000,506.291534 1.000000,450.468658 
M115.181488,505.234222 
	C112.018379,504.186432 108.907333,502.477753 105.681702,502.223633 
	C98.169258,501.631775 89.692924,499.492798 83.268806,502.090332 
	C73.568901,506.012390 63.967793,511.907135 59.757282,523.058105 
	C58.483437,526.431702 55.883625,529.280640 54.248547,532.548767 
	C52.702408,535.639099 50.644066,538.922546 50.504951,542.193054 
	C49.730579,560.398438 45.555141,578.490417 49.006985,596.859985 
	C51.464485,609.937988 52.494293,623.322510 55.569427,636.234863 
	C58.291752,647.665833 63.481194,658.489258 66.621048,669.846436 
	C69.831924,681.460449 77.214348,690.612183 83.451721,700.320068 
	C91.187073,712.359375 97.599991,725.222412 109.584999,734.578857 
	C129.041565,749.768188 148.768005,764.564026 172.707748,771.125427 
	C208.280273,780.875122 243.987930,790.830566 281.480133,790.076233 
	C284.936615,790.006714 288.421082,790.772827 291.875305,791.270447 
	C297.533203,792.085449 311.385010,782.805603 312.539612,777.239807 
	C312.800507,775.982239 312.780029,774.520996 312.408936,773.299316 
	C306.852631,755.008362 302.279236,736.418152 292.073273,719.801514 
	C268.550262,681.502563 247.193451,641.868774 219.579803,606.134888 
	C198.893311,579.365295 177.848160,552.964417 152.604462,530.306396 
	C141.572037,520.403931 129.484863,511.772980 115.181488,505.234222 
z"/>
<path fill="#3E3E3E" opacity="1.000000" stroke="none" 
	d="
M497.044037,522.016052 
	C494.845612,521.325684 492.442688,520.998352 490.478729,519.891785 
	C444.066711,493.741730 397.870239,467.204041 351.274261,441.387146 
	C315.290375,421.450012 278.922180,401.981293 239.286606,390.168945 
	C219.244247,384.195862 198.518219,380.509888 178.079437,375.886475 
	C176.351288,375.495575 174.457077,375.838898 172.069656,375.686951 
	C164.568344,366.438599 157.597626,357.374268 150.729706,348.232727 
	C148.559067,345.343475 146.663239,342.247803 145.099365,339.222656 
	C149.041122,339.454163 152.527176,339.684937 156.008881,339.969025 
	C176.572891,341.646912 197.243896,342.512390 217.677734,345.187592 
	C266.713928,351.607513 314.416504,363.557983 358.280853,386.962738 
	C385.129425,401.288452 410.645386,418.113220 436.746704,433.837433 
	C488.821167,465.208588 540.555664,497.161804 593.060364,527.795288 
	C635.057983,552.298462 677.979492,575.218750 720.505798,598.814941 
	C761.812500,621.734436 805.526306,638.051941 852.332458,645.045959 
	C875.687195,648.535767 899.292908,650.345032 922.784729,652.918396 
	C929.308899,653.633057 934.522766,650.862305 938.919556,646.471680 
	C943.391846,642.005615 947.366516,637.033508 951.916199,632.653931 
	C974.826111,610.600464 997.843262,588.658203 1020.865540,566.721863 
	C1022.041016,565.601868 1023.612793,564.897766 1025.000000,564.000000 
	C1025.000000,571.354248 1025.000000,578.708496 1024.639404,586.593140 
	C1022.213989,588.144287 1020.005432,588.950134 1018.106750,590.219299 
	C1000.161865,602.214844 984.543030,616.859375 969.866760,632.597961 
	C949.849792,654.063965 931.400146,676.675781 915.747314,701.626465 
	C901.923340,723.661987 902.528015,746.196167 910.855042,769.532043 
	C917.338135,787.700745 924.448975,805.665771 930.318604,824.028931 
	C944.990356,869.929016 956.127747,916.716309 963.704407,964.321960 
	C966.920532,984.529297 969.908447,1004.772888 973.000000,1025.000000 
	C967.977905,1025.000000 962.955811,1025.000000 957.466797,1025.000000 
	C954.521118,1005.867981 953.137878,986.513733 949.313660,967.654541 
	C943.161804,937.316345 935.855652,907.187683 928.165405,877.194031 
	C922.364746,854.570496 914.013428,832.646179 903.157898,811.995728 
	C895.785828,797.971924 886.710754,784.694214 877.168335,772.007263 
	C869.457947,761.756165 869.530090,752.264038 875.743530,742.052429 
	C879.983459,735.084106 884.401733,728.198730 889.173096,721.588684 
	C892.149414,717.465393 891.814819,714.571899 887.954956,711.404846 
	C877.713257,703.001343 865.961792,697.672913 853.349792,694.121643 
	C829.620789,687.440186 805.846008,680.921265 782.101379,674.294922 
	C761.908691,668.659912 742.754822,660.253052 724.963989,649.449341 
	C675.135742,619.190491 625.820801,588.087524 576.195740,557.492004 
	C560.034729,547.528198 543.482422,538.200439 527.264771,528.326050 
	C524.777649,526.811707 523.134766,523.910950 521.204590,521.026245 
	C521.865295,519.259949 522.422852,518.118713 523.147827,516.727417 
	C523.960571,515.713135 524.606018,514.948792 525.556030,514.168579 
	C526.266968,514.109680 526.673157,514.066711 527.330933,513.750000 
	C527.952332,508.302582 528.444458,503.130676 528.522583,497.952545 
	C528.531372,497.368439 526.203552,496.749115 524.590942,496.151642 
	C523.486206,496.142090 522.749756,496.127014 521.653809,495.957977 
	C518.204163,496.222778 515.113892,496.641479 511.809875,497.311188 
	C508.824219,500.950867 506.052368,504.339569 503.116669,507.975891 
	C502.203461,509.424103 501.454071,510.624725 500.399689,511.987030 
	C499.077820,515.437805 498.060913,518.726929 497.044037,522.016052 
z"/>
<path fill="#393939" opacity="1.000000" stroke="none" 
	d="
M1025.000000,563.531372 
	C1023.612793,564.897766 1022.041016,565.601868 1020.865540,566.721863 
	C997.843262,588.658203 974.826111,610.600464 951.916199,632.653931 
	C947.366516,637.033508 943.391846,642.005615 938.919556,646.471680 
	C934.522766,650.862305 929.308899,653.633057 922.784729,652.918396 
	C899.292908,650.345032 875.687195,648.535767 852.332458,645.045959 
	C805.526306,638.051941 761.812500,621.734436 720.505798,598.814941 
	C677.979492,575.218750 635.057983,552.298462 593.060364,527.795288 
	C540.555664,497.161804 488.821167,465.208588 436.746704,433.837433 
	C410.645386,418.113220 385.129425,401.288452 358.280853,386.962738 
	C314.416504,363.557983 266.713928,351.607513 217.677734,345.187592 
	C197.243896,342.512390 176.572891,341.646912 156.008881,339.969025 
	C152.527176,339.684937 149.041122,339.454163 144.821045,339.063843 
	C138.744919,333.280670 133.404785,327.632416 128.064667,321.984131 
	C172.446198,321.565918 216.657150,324.081268 260.496674,331.084167 
	C309.726135,338.948029 358.187775,350.279510 402.408051,374.092957 
	C426.830597,387.244995 449.629669,403.429047 473.054626,418.411926 
	C501.120392,436.363037 528.525574,455.420898 557.212158,472.308746 
	C593.792297,493.843567 631.221497,513.958191 668.568237,534.161011 
	C692.741272,547.237427 717.262146,559.699524 741.913330,571.856567 
	C775.477478,588.409241 809.979309,602.471680 847.146606,608.957031 
	C876.707275,614.115112 906.325500,616.326538 936.095581,611.123108 
	C947.434387,609.141296 957.657776,605.124329 965.238037,595.477905 
	C977.370911,580.038025 990.328613,565.247192 1002.500427,549.836670 
	C1011.758301,538.115540 1018.032166,524.713501 1018.616333,509.633850 
	C1019.071899,497.872986 1018.395203,485.987549 1017.196777,474.262207 
	C1015.406250,456.744202 1010.716125,439.810791 1002.640259,424.136719 
	C997.632629,414.417480 991.642334,405.131805 985.389465,396.140900 
	C968.324402,371.603638 944.982910,353.797760 920.196472,337.981903 
	C892.833557,320.522125 864.730896,304.226410 837.146423,287.107941 
	C812.135620,271.586609 788.735718,253.848999 769.356873,231.567429 
	C753.896301,213.791031 742.830322,193.202805 736.218445,170.508163 
	C731.000427,152.597855 726.673401,134.429184 721.545898,116.490936 
	C717.661987,102.903519 711.859680,90.019600 701.390808,80.231956 
	C695.896606,75.095192 689.151794,71.107681 682.518860,67.414497 
	C666.350220,58.411907 648.583069,54.618599 630.332336,53.242954 
	C616.075073,52.168327 601.763550,51.370628 587.472900,51.317982 
	C575.009399,51.272064 562.521301,52.176548 550.080261,53.132957 
	C532.487366,54.485424 514.840088,55.631367 497.374817,58.024231 
	C471.646606,61.549187 446.104248,66.412842 420.399597,70.131775 
	C381.843750,75.709999 343.262054,81.162407 304.603760,85.962990 
	C274.303040,89.725731 243.749146,89.774185 213.290176,88.822289 
	C186.134048,87.973602 159.060486,85.088234 132.818039,77.551086 
	C115.888596,72.688759 100.646461,64.187698 86.675255,53.389511 
	C77.208855,46.073044 67.527077,39.033504 57.892197,31.937206 
	C46.200172,23.325775 35.149422,14.083168 27.123230,1.323194 
	C32.022091,1.000000 37.044186,1.000000 42.661942,1.318200 
	C49.771999,8.216395 55.768715,15.439246 62.934788,21.209988 
	C71.458977,28.074402 81.410934,33.158134 89.988251,39.965935 
	C105.384552,52.185940 122.077499,61.880211 140.226318,69.346397 
	C164.584595,79.367096 190.370697,82.001755 216.133545,82.646690 
	C244.391296,83.354080 272.872620,83.223053 300.967712,80.489494 
	C346.206482,76.087906 391.302338,69.891945 436.287445,63.288372 
	C497.619202,54.285194 558.897400,45.483841 621.153564,47.992821 
	C640.857605,48.786911 660.458679,50.773174 679.342041,56.540821 
	C693.956909,61.004726 707.364563,68.287537 717.893433,79.711906 
	C727.911682,90.582298 733.810303,103.775429 737.986145,117.839020 
	C742.253601,132.211151 746.533936,146.584991 751.160583,160.843872 
	C763.609192,199.208649 786.994812,230.050125 818.970886,253.833313 
	C841.093872,270.287933 864.907776,284.485535 888.112854,299.464233 
	C909.928589,313.546082 932.337891,326.743195 953.758545,341.393311 
	C980.378235,359.599182 1003.289001,381.721252 1019.759216,409.906891 
	C1020.943420,411.933411 1023.227356,413.317322 1025.000000,415.000000 
	C1025.000000,464.354218 1025.000000,513.708435 1025.000000,563.531372 
z"/>
<path fill="#464646" opacity="1.000000" stroke="none" 
	d="
M188.949158,401.027924 
	C197.133545,404.525879 205.314850,408.031006 213.503586,411.518768 
	C217.633865,413.277985 221.785461,414.987183 225.913834,416.750793 
	C252.554291,428.131683 279.504761,438.845825 305.766479,451.042633 
	C368.986786,480.404236 429.750488,514.420410 489.491058,550.259521 
	C525.492615,571.857361 561.323792,593.766907 594.925476,619.039673 
	C615.770020,634.717407 635.263916,651.939087 649.408691,674.158875 
	C656.327820,685.028015 659.818848,697.158386 656.333923,710.300598 
	C655.954773,711.730042 655.581482,713.387512 654.632019,714.403137 
	C647.378052,722.162537 640.512207,730.197266 630.253784,734.601868 
	C599.513184,747.800903 567.458679,756.652649 535.126404,764.834839 
	C507.138550,771.917725 479.009979,778.284241 450.195526,780.283508 
	C429.794220,781.699097 409.272980,781.659912 388.806244,781.628418 
	C384.727448,781.622131 380.323212,779.254517 376.634491,777.035645 
	C361.570007,767.974121 353.798492,752.638062 344.893921,738.493591 
	C300.605896,668.144043 256.960388,597.387024 212.283356,527.286682 
	C192.515854,496.270569 171.302902,466.140015 149.898376,436.213806 
	C131.638947,410.684784 110.745140,387.255920 85.967140,367.800446 
	C67.426140,353.242310 46.733234,345.077118 22.666965,352.660034 
	C18.576910,353.948792 14.748361,356.070099 10.804232,357.818573 
	C7.776426,359.160828 4.756848,360.521637 1.366805,361.937103 
	C1.000000,349.979095 1.000000,337.958221 1.367571,325.405640 
	C5.545815,323.224884 9.396332,321.661499 13.159871,319.911102 
	C25.766718,314.047699 39.149284,313.523560 52.338745,315.940613 
	C65.602547,318.371246 77.132431,325.312836 87.905533,333.448975 
	C107.703293,348.400757 123.039398,367.472717 137.686111,387.137238 
	C161.404114,418.980835 182.280365,452.717194 202.495102,486.829987 
	C234.340302,540.569458 265.441956,594.749695 297.323273,648.467468 
	C316.114838,680.129944 335.833099,711.241821 355.064514,742.644226 
	C359.297394,749.556030 363.423950,756.402893 372.727112,757.035400 
	C373.345703,757.077454 373.905975,757.682861 374.539703,757.843140 
	C378.809174,758.923218 383.079285,760.801819 387.371033,760.861877 
	C413.801727,761.232117 440.001892,758.379150 465.694153,752.390686 
	C495.694458,745.398132 524.768433,735.501343 549.989075,717.129395 
	C560.391296,709.552002 569.273682,700.258423 570.803101,686.212097 
	C572.176331,673.599548 567.458557,663.024170 560.366577,653.254822 
	C550.388611,639.509888 537.665833,628.482666 524.277893,618.247742 
	C479.653625,584.132996 431.482574,555.640930 381.882385,529.542664 
	C341.303741,508.191284 299.238800,490.009094 257.159790,471.822876 
	C246.961777,467.415375 238.755768,458.397491 229.642746,451.487732 
	C229.387238,451.293976 229.245911,450.955048 229.032410,450.699615 
	C220.705444,440.737396 212.410568,430.747925 204.003235,420.853973 
	C202.974136,419.642883 201.340897,418.945160 199.771393,417.754181 
	C196.019821,412.008545 192.484497,406.518219 188.949158,401.027924 
z"/>
<path fill="#343434" opacity="1.000000" stroke="none" 
	d="
M17.541931,1.000000 
	C25.683781,9.476857 32.613350,18.831694 41.224537,26.228956 
	C54.829044,37.915634 69.479820,48.397934 83.837524,59.190746 
	C101.361176,72.363419 121.176476,80.463303 142.716858,83.926453 
	C158.642761,86.486923 174.695679,88.392357 190.753677,89.956741 
	C205.640823,91.407074 220.649414,93.226089 235.534119,92.737465 
	C263.297729,91.826073 291.144958,90.508308 318.713562,87.278435 
	C364.208893,81.948311 409.461609,74.579010 454.910736,68.811172 
	C486.119934,64.850479 517.454651,61.760071 548.796936,59.004993 
	C573.055237,56.872616 597.515564,56.305603 621.509521,61.020905 
	C636.126465,63.893429 650.302063,69.092072 664.573364,73.572571 
	C667.289001,74.425163 669.611938,76.694382 671.966980,78.504028 
	C691.432495,93.461868 697.806946,114.739349 700.991028,137.782364 
	C704.138550,160.560501 707.731689,183.304108 715.337585,205.138992 
	C722.041382,224.383850 731.968933,241.741241 746.082275,256.613617 
	C760.159424,271.447906 776.096313,283.884369 793.567261,294.465485 
	C821.189514,311.194580 849.125427,327.454102 876.145935,345.110168 
	C891.961914,355.444855 906.994751,367.283020 921.072815,379.902985 
	C943.728882,400.212494 960.454956,424.736908 965.209412,455.548889 
	C969.472595,483.176544 965.485840,509.367676 945.498413,530.533936 
	C935.361145,541.269226 922.672913,548.880981 907.865540,552.116882 
	C879.515564,558.312317 851.546509,555.616577 823.894714,548.075012 
	C786.307190,537.823608 750.753540,522.239685 715.368408,506.220581 
	C682.255066,491.229919 650.037842,474.531281 618.611023,456.282318 
	C586.135986,437.424652 555.344177,416.108978 525.575256,393.242706 
	C502.650391,375.633514 478.479309,359.993225 451.624878,348.895081 
	C424.565033,337.712067 396.536346,329.599945 367.783081,324.444855 
	C336.802307,318.890442 305.691711,313.908417 274.491730,309.780182 
	C252.564301,306.878815 230.422241,305.263123 208.322021,304.094238 
	C183.725159,302.793335 159.069778,302.452545 134.434082,302.116302 
	C126.490593,302.007874 118.528847,303.237091 109.874451,303.844849 
	C106.108459,301.473663 103.043465,299.111938 99.978462,296.750244 
	C103.111710,295.850067 106.219711,294.281921 109.382446,294.162384 
	C125.186661,293.565308 141.028839,292.627869 156.813919,293.145081 
	C191.405594,294.278625 226.044495,295.302246 260.526917,298.076050 
	C297.360992,301.039001 334.105927,305.433075 370.763641,310.177032 
	C409.967041,315.250397 448.753479,322.658295 486.190887,335.891479 
	C516.893860,346.744232 543.711060,364.055664 569.049438,384.260803 
	C587.251038,398.774963 606.098999,412.582214 625.435608,425.545807 
	C656.789062,446.565857 690.505920,463.484985 725.123474,478.349274 
	C763.591675,494.866882 802.744385,509.726135 844.812683,514.391235 
	C867.541199,516.911743 889.541016,513.857910 907.640991,498.885468 
	C922.628296,486.487854 929.217590,469.523285 926.697083,449.866547 
	C924.103210,429.637970 914.904480,412.559326 901.811646,396.979187 
	C893.039185,386.540131 882.653320,378.103973 872.618408,369.160736 
	C870.766541,367.510254 868.662598,366.134613 866.628967,364.697235 
	C841.713562,347.086670 814.927917,332.562500 788.698486,317.091949 
	C765.482422,303.398712 742.399231,289.159241 724.325806,268.649139 
	C713.589905,256.465790 705.482727,242.492767 700.473816,226.897644 
	C691.472961,198.873352 689.878174,169.696030 686.971680,140.711075 
	C685.488525,125.919998 683.596436,111.020409 675.650024,98.083115 
	C669.019653,87.288269 659.843506,78.549522 647.851685,73.929741 
	C626.488586,65.699730 604.105408,62.370243 581.281738,62.021564 
	C540.352234,61.396294 499.804749,66.054008 459.362762,71.530693 
	C423.216278,76.425667 387.226685,82.501671 351.052979,87.165092 
	C326.962067,90.270821 302.700562,92.274696 278.457245,93.908241 
	C258.375458,95.261375 238.170303,96.453903 218.087738,95.757805 
	C182.794220,94.534477 147.574753,91.712708 113.350662,81.850662 
	C96.438942,76.977371 81.456688,68.632362 67.887314,57.539791 
	C54.757988,46.806942 41.130901,36.638100 28.521790,25.330208 
	C20.666094,18.285196 14.293893,9.585983 7.127962,1.314575 
	C10.361287,1.000000 13.722575,1.000000 17.541931,1.000000 
z"/>
<path fill="#545454" opacity="1.000000" stroke="none" 
	d="
M99.687149,296.612915 
	C103.043465,299.111938 106.108459,301.473663 109.464699,303.977173 
	C115.676437,309.943878 121.596939,315.768768 127.791046,321.788879 
	C133.404785,327.632416 138.744919,333.280670 144.363342,339.087769 
	C146.663239,342.247803 148.559067,345.343475 150.729706,348.232727 
	C157.597626,357.374268 164.568344,366.438599 171.712509,375.786499 
	C177.457748,384.198669 182.989761,392.357086 188.735474,400.771729 
	C192.484497,406.518219 196.019821,412.008545 199.894760,418.078918 
	C201.043991,420.112183 201.772354,421.618011 202.675507,423.010529 
	C215.444473,442.697876 228.232361,462.373016 241.025986,482.044342 
	C248.369781,493.336090 255.719620,504.623993 263.106384,515.887634 
	C263.827332,516.986938 264.648529,518.196228 265.727905,518.855957 
	C272.248718,522.841797 278.612213,527.203064 285.493195,530.455139 
	C297.084290,535.933350 309.096497,540.511902 320.802032,545.757935 
	C371.314941,568.396118 419.512238,594.976685 462.366608,630.387329 
	C476.011963,641.662598 488.922119,653.728882 494.421570,671.517090 
	C497.279968,680.762878 495.187622,689.467163 489.613007,696.430908 
	C482.349304,705.504456 473.223785,712.514099 462.260498,717.589478 
	C432.995575,731.137512 402.132050,735.590820 370.359528,735.880920 
	C368.184052,735.900879 365.268402,735.342468 363.938232,733.904663 
	C357.170044,726.589050 349.712982,719.575195 344.523865,711.200012 
	C331.366119,689.963257 318.986542,668.225220 306.836945,646.386658 
	C270.066010,580.291931 233.746048,513.945923 196.862198,447.914581 
	C176.133362,410.804810 154.384003,374.306519 126.802437,341.660583 
	C111.602592,323.669830 94.760536,307.812195 73.210243,297.587555 
	C52.874756,287.939270 32.325008,286.662109 11.379250,295.588318 
	C8.041093,297.010864 4.465710,297.876770 1.000001,299.000000 
	C1.000000,289.312439 1.000000,279.624878 1.000000,269.468658 
	C16.736921,266.090271 32.463467,266.147430 47.993134,270.037354 
	C55.215935,271.846558 62.185452,274.666931 69.622757,277.185242 
	C79.782433,283.719574 89.589134,290.097595 99.687149,296.612915 
z"/>
<path fill="#6F6F6F" opacity="1.000000" stroke="none" 
	d="
M857.000000,1025.000000 
	C840.645752,1025.000000 824.291565,1025.000000 807.447632,1024.573486 
	C805.825073,1016.911560 805.001892,1009.611328 803.504150,1002.452271 
	C797.842346,975.388367 782.560669,955.653992 757.494385,943.891357 
	C731.894348,931.878174 704.528564,929.145935 676.881958,931.498474 
	C651.859741,933.627747 626.937378,937.354004 602.111328,941.266602 
	C563.727722,947.315796 525.040649,949.975342 486.368927,952.967041 
	C459.489014,955.046448 432.553619,956.601501 405.746826,959.389343 
	C361.113953,964.030945 317.253052,973.276550 273.440094,982.778198 
	C253.483383,987.106140 233.840683,993.574036 213.052795,993.235779 
	C206.419846,993.127869 199.784485,992.959167 193.152603,993.033020 
	C168.845367,993.303528 144.537598,994.001038 120.233025,993.888367 
	C99.658569,993.792969 79.119957,994.871399 58.522446,991.040161 
	C47.195118,988.933350 36.734577,985.970215 26.466204,980.993774 
	C18.284616,977.028748 9.510871,974.285583 0.999992,971.000000 
	C1.000000,954.645752 1.000000,938.291565 1.381913,921.504639 
	C4.500167,922.212830 7.445362,923.014221 9.939652,924.548584 
	C29.291729,936.452759 50.792587,943.071594 72.767250,946.511108 
	C96.868759,950.283508 121.423004,951.976624 145.837067,952.733154 
	C176.351486,953.678711 206.697525,955.371887 236.809387,960.570679 
	C242.850708,961.613647 249.097443,962.844360 255.110107,962.337036 
	C263.150726,961.658630 271.087708,959.513855 279.013214,957.747620 
	C333.673615,945.566345 388.541290,934.578735 444.200348,927.892883 
	C478.427124,923.781555 512.737244,920.128113 546.784729,914.823669 
	C584.305664,908.978088 621.522766,901.209045 658.960388,894.792114 
	C684.005127,890.499451 709.314026,889.426086 734.631042,892.131104 
	C758.743042,894.707397 781.718689,901.219849 802.623901,913.904602 
	C818.947021,923.809143 832.945679,936.319519 842.777954,952.811462 
	C856.061523,975.091980 860.059570,999.399475 857.000000,1025.000000 
z"/>
<path fill="#4C4C4C" opacity="1.000000" stroke="none" 
	d="
M1.000001,299.468658 
	C4.465710,297.876770 8.041093,297.010864 11.379250,295.588318 
	C32.325008,286.662109 52.874756,287.939270 73.210243,297.587555 
	C94.760536,307.812195 111.602592,323.669830 126.802437,341.660583 
	C154.384003,374.306519 176.133362,410.804810 196.862198,447.914581 
	C233.746048,513.945923 270.066010,580.291931 306.836945,646.386658 
	C318.986542,668.225220 331.366119,689.963257 344.523865,711.200012 
	C349.712982,719.575195 357.170044,726.589050 363.938232,733.904663 
	C365.268402,735.342468 368.184052,735.900879 370.359528,735.880920 
	C402.132050,735.590820 432.995575,731.137512 462.260498,717.589478 
	C473.223785,712.514099 482.349304,705.504456 489.613007,696.430908 
	C495.187622,689.467163 497.279968,680.762878 494.421570,671.517090 
	C488.922119,653.728882 476.011963,641.662598 462.366608,630.387329 
	C419.512238,594.976685 371.314941,568.396118 320.802032,545.757935 
	C309.096497,540.511902 297.084290,535.933350 285.493195,530.455139 
	C278.612213,527.203064 272.248718,522.841797 265.727905,518.855957 
	C264.648529,518.196228 263.827332,516.986938 263.106384,515.887634 
	C255.719620,504.623993 248.369781,493.336090 241.025986,482.044342 
	C228.232361,462.373016 215.444473,442.697876 202.675507,423.010529 
	C201.772354,421.618011 201.043991,420.112183 200.110992,418.334290 
	C201.340897,418.945160 202.974136,419.642883 204.003235,420.853973 
	C212.410568,430.747925 220.705444,440.737396 229.032410,450.699615 
	C229.245911,450.955048 229.387238,451.293976 229.642746,451.487732 
	C238.755768,458.397491 246.961777,467.415375 257.159790,471.822876 
	C299.238800,490.009094 341.303741,508.191284 381.882385,529.542664 
	C431.482574,555.640930 479.653625,584.132996 524.277893,618.247742 
	C537.665833,628.482666 550.388611,639.509888 560.366577,653.254822 
	C567.458557,663.024170 572.176331,673.599548 570.803101,686.212097 
	C569.273682,700.258423 560.391296,709.552002 549.989075,717.129395 
	C524.768433,735.501343 495.694458,745.398132 465.694153,752.390686 
	C440.001892,758.379150 413.801727,761.232117 387.371033,760.861877 
	C383.079285,760.801819 378.809174,758.923218 374.539703,757.843140 
	C373.905975,757.682861 373.345703,757.077454 372.727112,757.035400 
	C363.423950,756.402893 359.297394,749.556030 355.064514,742.644226 
	C335.833099,711.241821 316.114838,680.129944 297.323273,648.467468 
	C265.441956,594.749695 234.340302,540.569458 202.495102,486.829987 
	C182.280365,452.717194 161.404114,418.980835 137.686111,387.137238 
	C123.039398,367.472717 107.703293,348.400757 87.905533,333.448975 
	C77.132431,325.312836 65.602547,318.371246 52.338745,315.940613 
	C39.149284,313.523560 25.766718,314.047699 13.159871,319.911102 
	C9.396332,321.661499 5.545815,323.224884 1.367571,324.936951 
	C1.000000,316.645782 1.000000,308.291534 1.000001,299.468658 
z"/>
<path fill="#858585" opacity="1.000000" stroke="none" 
	d="
M0.999992,971.468689 
	C9.510871,974.285583 18.284616,977.028748 26.466204,980.993774 
	C36.734577,985.970215 47.195118,988.933350 58.522446,991.040161 
	C79.119957,994.871399 99.658569,993.792969 120.233025,993.888367 
	C144.537598,994.001038 168.845367,993.303528 193.152603,993.033020 
	C199.784485,992.959167 206.419846,993.127869 213.052795,993.235779 
	C233.840683,993.574036 253.483383,987.106140 273.440094,982.778198 
	C317.253052,973.276550 361.113953,964.030945 405.746826,959.389343 
	C432.553619,956.601501 459.489014,955.046448 486.368927,952.967041 
	C525.040649,949.975342 563.727722,947.315796 602.111328,941.266602 
	C626.937378,937.354004 651.859741,933.627747 676.881958,931.498474 
	C704.528564,929.145935 731.894348,931.878174 757.494385,943.891357 
	C782.560669,955.653992 797.842346,975.388367 803.504150,1002.452271 
	C805.001892,1009.611328 805.825073,1016.911560 806.979004,1024.573486 
	C778.979126,1025.000000 750.958191,1025.000000 722.344604,1024.683594 
	C716.521912,1016.568481 709.336121,1010.957397 701.185242,1006.619019 
	C678.468567,994.528015 653.502258,992.221313 628.512329,991.137756 
	C603.407532,990.049255 578.239136,990.522583 553.114502,989.776062 
	C519.690674,988.782898 486.286255,987.148865 452.864441,986.071106 
	C444.738129,985.809082 436.567505,986.500427 428.432922,987.005554 
	C411.330719,988.067749 394.184906,988.778748 377.152924,990.554443 
	C324.462616,996.048157 273.308136,1009.372437 221.996307,1021.812317 
	C219.865204,1022.329102 217.992889,1023.913208 216.000000,1025.000000 
	C161.979111,1025.000000 107.958214,1025.000000 53.272495,1024.723022 
	C50.463726,1023.275879 48.415115,1021.862854 46.159409,1020.977356 
	C36.126617,1017.039246 26.008966,1013.317505 15.974628,1009.383240 
	C10.925082,1007.403503 5.987957,1005.136902 0.999996,1003.000000 
	C1.000000,992.645752 1.000000,982.291565 0.999992,971.468689 
z"/>
<path fill="#606060" opacity="1.000000" stroke="none" 
	d="
M596.000000,1.000000 
	C739.000000,1.000000 882.000000,1.000000 1025.000000,1.000000 
	C1025.000000,21.432276 1025.000000,41.747478 1024.598877,62.565655 
	C1016.434387,65.458061 1008.452087,67.307526 1000.952698,70.348053 
	C984.765015,76.911171 972.757202,87.589500 966.312866,104.632454 
	C960.032898,121.240852 962.904419,136.776733 969.462891,152.011139 
	C978.037170,171.928009 993.260315,186.743210 1009.386475,200.562943 
	C1014.106262,204.607605 1019.769287,207.551559 1025.000000,211.000000 
	C1025.000000,226.354233 1025.000000,241.708450 1024.662842,257.425964 
	C1022.979736,257.138153 1021.540222,256.629242 1020.302124,255.814423 
	C1003.045166,244.457809 985.537842,233.453766 968.656372,221.562103 
	C951.198059,209.264069 935.118469,195.311722 921.325684,178.799423 
	C900.532043,153.906158 890.097534,124.932167 886.068909,93.164047 
	C884.690369,82.293633 883.216980,71.332840 880.421204,60.774994 
	C877.910339,51.293243 873.537659,42.249531 865.125244,36.171562 
	C855.034851,28.881269 843.917664,23.558138 831.922668,20.302584 
	C799.910950,11.614281 767.136536,7.958412 734.111816,7.146692 
	C702.149536,6.361086 670.151306,6.542109 638.282104,9.924485 
	C604.998047,13.457027 571.734802,17.194017 538.431885,20.536993 
	C519.449341,22.442482 500.875458,28.636185 481.457214,26.068850 
	C480.648865,25.961973 479.798431,26.161058 478.968628,26.230196 
	C467.892365,27.153095 456.825958,28.222019 445.737823,28.967932 
	C430.463501,29.995461 415.162201,30.628714 399.891357,31.700178 
	C371.501221,33.692142 343.148438,37.031631 314.734985,37.616352 
	C292.353210,38.076946 269.792114,36.209877 247.510757,33.641010 
	C215.395050,29.938318 184.382812,21.508142 155.427750,6.626154 
	C152.706741,5.227644 150.464523,2.897561 148.000000,0.999998 
	C164.354233,1.000000 180.708450,1.000000 197.723984,1.280226 
	C200.218460,2.631706 201.926788,4.172229 203.904953,4.698448 
	C217.251587,8.248858 230.529083,12.238281 244.066971,14.853414 
	C272.293182,20.305902 300.878510,21.310909 329.565552,20.001871 
	C341.201508,19.470903 352.853760,19.273903 364.484680,18.660749 
	C385.749634,17.539705 406.990326,15.767710 428.267151,15.117975 
	C448.372009,14.504028 468.510284,14.957086 488.633728,15.004090 
	C492.622498,15.013408 496.682373,15.877584 500.587555,15.383669 
	C530.317322,11.623543 560.021973,7.662346 589.714783,3.619763 
	C591.888489,3.323827 593.908508,1.899648 596.000000,1.000000 
z"/>
<path fill="#545454" opacity="1.000000" stroke="none" 
	d="
M916.000000,1025.000000 
	C906.979126,1025.000000 897.958191,1025.000000 888.470276,1024.538452 
	C887.818176,1012.293274 888.793091,1000.353577 887.232910,988.754883 
	C882.335754,952.347961 861.898254,924.970642 834.185730,902.469482 
	C802.184631,876.486206 764.683716,865.952148 724.143860,865.065979 
	C691.989380,864.363159 660.450134,869.617004 629.040344,875.935730 
	C594.907410,882.802185 560.859985,890.292175 526.499939,895.789795 
	C450.504944,907.948975 374.317017,918.819885 299.299103,936.541077 
	C288.852631,939.008789 277.119080,937.763794 266.246857,936.285095 
	C250.105835,934.089844 234.321136,929.213806 218.170990,927.159790 
	C188.950714,923.443420 159.497299,921.549805 130.287109,917.768250 
	C111.183327,915.295105 91.833725,912.476562 73.501549,906.854309 
	C50.456409,899.786621 28.300894,889.813049 9.763838,873.460999 
	C7.383322,871.361023 3.947162,870.457642 1.000001,869.000000 
	C1.000000,847.979126 1.000000,826.958191 1.310088,805.600952 
	C6.375875,809.639954 10.955084,814.228149 15.922919,818.347656 
	C27.280636,827.765930 36.268021,839.929016 49.751465,846.911072 
	C62.301811,853.409912 73.990082,862.164124 87.166069,866.721252 
	C105.486267,873.057556 124.675018,877.298889 143.788971,880.828796 
	C174.394928,886.480957 205.361710,890.188110 235.951279,895.917236 
	C257.335083,899.922241 278.560516,905.197021 299.424316,911.366821 
	C309.159454,914.245667 317.893677,914.609863 327.642181,912.399292 
	C368.082611,903.229248 408.552460,894.133667 449.200378,885.948853 
	C493.446350,877.039673 537.948364,869.409912 582.250732,860.770447 
	C618.203552,853.759338 653.905640,845.412781 689.944519,838.908325 
	C718.693359,833.719543 747.636230,834.337952 776.215881,841.552673 
	C789.526672,844.912964 802.484375,849.083862 814.173340,856.484619 
	C819.983154,860.162964 825.653687,864.063721 833.132202,862.222412 
	C833.885376,862.036987 834.826355,862.234314 835.585266,862.512695 
	C841.272461,864.598694 847.629028,865.754395 852.446960,869.109863 
	C859.995361,874.366760 867.520996,880.310547 873.197083,887.442871 
	C880.997192,897.244446 888.298096,907.720337 891.357788,920.398071 
	C892.078796,923.385681 894.293335,925.984802 895.572998,928.872498 
	C897.316101,932.806030 898.976746,936.790894 900.393372,940.851196 
	C902.691589,947.437988 905.008789,954.035706 906.873352,960.752258 
	C909.802185,971.302979 913.287476,981.825134 914.814819,992.603455 
	C916.322754,1003.244568 915.692322,1014.188782 916.000000,1025.000000 
z"/>
<path fill="#464646" opacity="1.000000" stroke="none" 
	d="
M1.000000,705.468628 
	C6.181009,712.053711 11.840451,718.810852 16.437326,726.226624 
	C24.492319,739.221191 31.363029,752.938416 42.828571,763.581299 
	C46.435017,766.928955 48.968430,771.435425 51.977238,775.423462 
	C61.316216,787.801636 75.001495,794.952026 86.803658,804.363464 
	C108.886627,821.973083 135.524979,828.689087 162.162216,834.760498 
	C193.177383,841.829834 224.551590,847.313843 255.615082,854.185974 
	C269.394043,857.234314 282.897583,861.680664 296.335693,866.074890 
	C310.417969,870.679688 324.200958,876.198975 338.279053,880.817871 
	C341.507446,881.877075 345.623657,881.653564 348.961456,880.710876 
	C363.864502,876.501892 378.497070,871.291077 393.478821,867.413757 
	C427.332672,858.652466 461.332336,850.454346 495.277802,842.047729 
	C523.573486,835.040344 552.232483,829.229126 580.073059,820.733398 
	C606.293945,812.731873 631.650513,801.901123 657.401489,792.353088 
	C660.832275,791.081055 664.364014,790.084045 667.818054,788.871582 
	C680.526001,784.410828 693.076294,779.436829 705.951050,775.529358 
	C732.128906,767.584534 758.624878,765.516418 785.043762,774.350891 
	C790.437988,776.154602 795.213013,779.837830 800.228943,782.731934 
	C802.382629,783.974609 804.569824,785.234131 806.485779,786.799377 
	C811.716980,791.072937 817.346497,795.034058 821.815125,800.018188 
	C826.571411,805.322998 831.638306,807.450562 838.577637,806.156860 
	C844.228271,805.103455 850.004456,803.851440 855.686035,804.017883 
	C867.525269,804.364685 876.024597,811.382080 883.282227,819.965820 
	C904.310608,844.836487 914.430969,874.913086 922.374573,905.609863 
	C930.339600,936.389526 936.762207,967.581726 943.262512,998.717957 
	C944.976807,1006.929382 944.480957,1015.602173 945.000000,1024.531494 
	C940.643127,1025.000000 936.286194,1025.000000 931.465088,1024.531372 
	C931.411377,1009.527527 930.940979,995.013000 927.293274,980.885681 
	C922.929749,963.985840 917.846375,947.273193 913.310181,930.416199 
	C907.272522,907.979553 899.889771,886.078186 887.946228,866.004211 
	C881.860779,855.776123 874.780090,846.350525 864.045288,840.361267 
	C853.291016,834.361145 842.128723,834.247925 830.930847,838.468323 
	C827.218689,839.867432 824.540771,839.202576 821.696594,837.122131 
	C808.142578,827.207031 792.469116,821.916931 776.659119,817.280518 
	C754.490479,810.779541 731.569702,811.192322 709.241150,814.824036 
	C680.191345,819.548828 651.478516,826.468445 622.748596,833.005798 
	C585.566345,841.466431 548.733887,851.616943 511.344727,858.977173 
	C462.302643,868.631348 413.242432,878.044067 364.825775,890.540161 
	C353.698792,893.411987 342.598450,896.399475 331.413330,899.024658 
	C328.796356,899.638855 325.707520,899.584045 323.142029,898.815186 
	C316.469116,896.815308 310.012817,894.106201 303.387909,891.930359 
	C269.326477,880.743286 234.904327,871.073669 199.160538,866.800171 
	C163.797134,862.572205 128.982681,855.950867 96.377731,840.865356 
	C85.973778,836.051636 75.324615,831.330261 65.924187,824.904053 
	C55.819695,817.996521 46.925762,809.274719 37.757095,801.061584 
	C33.709423,797.435791 30.117661,793.253601 26.620670,789.071716 
	C21.496319,782.943787 16.815981,776.440491 11.610650,770.385803 
	C8.396143,766.646729 4.558095,763.443726 0.999993,760.000000 
	C1.000000,741.979126 1.000000,723.958191 1.000000,705.468628 
z"/>
<path fill="#606060" opacity="1.000000" stroke="none" 
	d="
M1.000001,869.468628 
	C3.947162,870.457642 7.383322,871.361023 9.763838,873.460999 
	C28.300894,889.813049 50.456409,899.786621 73.501549,906.854309 
	C91.833725,912.476562 111.183327,915.295105 130.287109,917.768250 
	C159.497299,921.549805 188.950714,923.443420 218.170990,927.159790 
	C234.321136,929.213806 250.105835,934.089844 266.246857,936.285095 
	C277.119080,937.763794 288.852631,939.008789 299.299103,936.541077 
	C374.317017,918.819885 450.504944,907.948975 526.499939,895.789795 
	C560.859985,890.292175 594.907410,882.802185 629.040344,875.935730 
	C660.450134,869.617004 691.989380,864.363159 724.143860,865.065979 
	C764.683716,865.952148 802.184631,876.486206 834.185730,902.469482 
	C861.898254,924.970642 882.335754,952.347961 887.232910,988.754883 
	C888.793091,1000.353577 887.818176,1012.293274 888.001587,1024.538452 
	C877.979126,1025.000000 867.958191,1025.000000 857.468628,1025.000000 
	C860.059570,999.399475 856.061523,975.091980 842.777954,952.811462 
	C832.945679,936.319519 818.947021,923.809143 802.623901,913.904602 
	C781.718689,901.219849 758.743042,894.707397 734.631042,892.131104 
	C709.314026,889.426086 684.005127,890.499451 658.960388,894.792114 
	C621.522766,901.209045 584.305664,908.978088 546.784729,914.823669 
	C512.737244,920.128113 478.427124,923.781555 444.200348,927.892883 
	C388.541290,934.578735 333.673615,945.566345 279.013214,957.747620 
	C271.087708,959.513855 263.150726,961.658630 255.110107,962.337036 
	C249.097443,962.844360 242.850708,961.613647 236.809387,960.570679 
	C206.697525,955.371887 176.351486,953.678711 145.837067,952.733154 
	C121.423004,951.976624 96.868759,950.283508 72.767250,946.511108 
	C50.792587,943.071594 29.291729,936.452759 9.939652,924.548584 
	C7.445362,923.014221 4.500167,922.212830 1.381913,921.036011 
	C1.000000,903.979126 1.000000,886.958191 1.000001,869.468628 
z"/>
<path fill="#545454" opacity="1.000000" stroke="none" 
	d="
M147.531342,0.999998 
	C150.464523,2.897561 152.706741,5.227644 155.427750,6.626154 
	C184.382812,21.508142 215.395050,29.938318 247.510757,33.641010 
	C269.792114,36.209877 292.353210,38.076946 314.734985,37.616352 
	C343.148438,37.031631 371.501221,33.692142 399.891357,31.700178 
	C415.162201,30.628714 430.463501,29.995461 445.737823,28.967932 
	C456.825958,28.222019 467.892365,27.153095 478.968628,26.230196 
	C479.798431,26.161058 480.648865,25.961973 481.457214,26.068850 
	C500.875458,28.636185 519.449341,22.442482 538.431885,20.536993 
	C571.734802,17.194017 604.998047,13.457027 638.282104,9.924485 
	C670.151306,6.542109 702.149536,6.361086 734.111816,7.146692 
	C767.136536,7.958412 799.910950,11.614281 831.922668,20.302584 
	C843.917664,23.558138 855.034851,28.881269 865.125244,36.171562 
	C873.537659,42.249531 877.910339,51.293243 880.421204,60.774994 
	C883.216980,71.332840 884.690369,82.293633 886.068909,93.164047 
	C890.097534,124.932167 900.532043,153.906158 921.325684,178.799423 
	C935.118469,195.311722 951.198059,209.264069 968.656372,221.562103 
	C985.537842,233.453766 1003.045166,244.457809 1020.302124,255.814423 
	C1021.540222,256.629242 1022.979736,257.138153 1024.662842,257.894653 
	C1025.000000,268.687561 1025.000000,279.375122 1024.658203,290.428040 
	C1021.815186,289.487488 1019.216492,288.337280 1016.830566,286.846680 
	C1009.482788,282.256378 1002.256226,277.472107 994.911377,272.877045 
	C962.016479,252.297424 928.352356,232.878769 899.474304,206.465286 
	C879.266785,187.982300 862.625793,166.895172 852.228943,141.547531 
	C845.224548,124.470787 839.749023,106.750931 833.948547,89.200127 
	C825.503235,63.646866 808.756409,46.136703 783.816101,36.342838 
	C750.551636,23.280140 715.592590,19.739147 680.342346,19.174332 
	C647.566956,18.649168 614.814331,19.856688 582.277710,24.871410 
	C565.498779,27.457472 548.494812,28.546669 531.654114,30.777315 
	C507.871521,33.927448 484.217163,38.166752 460.378601,40.743378 
	C428.461914,44.193146 396.415161,46.428200 364.435791,49.312843 
	C330.203735,52.400684 295.897186,52.244423 261.586029,51.850597 
	C256.272156,51.789608 250.931564,51.279552 245.662292,50.550816 
	C204.197327,44.816219 164.655640,32.934017 127.850647,12.757054 
	C122.136086,9.624260 117.262489,4.957436 112.000000,1.000001 
	C123.687561,1.000000 135.375122,1.000000 147.531342,0.999998 
z"/>
<path fill="#4C4C4C" opacity="1.000000" stroke="none" 
	d="
M0.999993,760.468628 
	C4.558095,763.443726 8.396143,766.646729 11.610650,770.385803 
	C16.815981,776.440491 21.496319,782.943787 26.620670,789.071716 
	C30.117661,793.253601 33.709423,797.435791 37.757095,801.061584 
	C46.925762,809.274719 55.819695,817.996521 65.924187,824.904053 
	C75.324615,831.330261 85.973778,836.051636 96.377731,840.865356 
	C128.982681,855.950867 163.797134,862.572205 199.160538,866.800171 
	C234.904327,871.073669 269.326477,880.743286 303.387909,891.930359 
	C310.012817,894.106201 316.469116,896.815308 323.142029,898.815186 
	C325.707520,899.584045 328.796356,899.638855 331.413330,899.024658 
	C342.598450,896.399475 353.698792,893.411987 364.825775,890.540161 
	C413.242432,878.044067 462.302643,868.631348 511.344727,858.977173 
	C548.733887,851.616943 585.566345,841.466431 622.748596,833.005798 
	C651.478516,826.468445 680.191345,819.548828 709.241150,814.824036 
	C731.569702,811.192322 754.490479,810.779541 776.659119,817.280518 
	C792.469116,821.916931 808.142578,827.207031 821.696594,837.122131 
	C824.540771,839.202576 827.218689,839.867432 830.930847,838.468323 
	C842.128723,834.247925 853.291016,834.361145 864.045288,840.361267 
	C874.780090,846.350525 881.860779,855.776123 887.946228,866.004211 
	C899.889771,886.078186 907.272522,907.979553 913.310181,930.416199 
	C917.846375,947.273193 922.929749,963.985840 927.293274,980.885681 
	C930.940979,995.013000 931.411377,1009.527527 931.000427,1024.531372 
	C926.310730,1025.000000 921.621521,1025.000000 916.466125,1025.000000 
	C915.692322,1014.188782 916.322754,1003.244568 914.814819,992.603455 
	C913.287476,981.825134 909.802185,971.302979 906.873352,960.752258 
	C905.008789,954.035706 902.691589,947.437988 900.393372,940.851196 
	C898.976746,936.790894 897.316101,932.806030 895.572998,928.872498 
	C894.293335,925.984802 892.078796,923.385681 891.357788,920.398071 
	C888.298096,907.720337 880.997192,897.244446 873.197083,887.442871 
	C867.520996,880.310547 859.995361,874.366760 852.446960,869.109863 
	C847.629028,865.754395 841.272461,864.598694 835.585266,862.512695 
	C834.826355,862.234314 833.885376,862.036987 833.132202,862.222412 
	C825.653687,864.063721 819.983154,860.162964 814.173340,856.484619 
	C802.484375,849.083862 789.526672,844.912964 776.215881,841.552673 
	C747.636230,834.337952 718.693359,833.719543 689.944519,838.908325 
	C653.905640,845.412781 618.203552,853.759338 582.250732,860.770447 
	C537.948364,869.409912 493.446350,877.039673 449.200378,885.948853 
	C408.552460,894.133667 368.082611,903.229248 327.642181,912.399292 
	C317.893677,914.609863 309.159454,914.245667 299.424316,911.366821 
	C278.560516,905.197021 257.335083,899.922241 235.951279,895.917236 
	C205.361710,890.188110 174.394928,886.480957 143.788971,880.828796 
	C124.675018,877.298889 105.486267,873.057556 87.166069,866.721252 
	C73.990082,862.164124 62.301811,853.409912 49.751465,846.911072 
	C36.268021,839.929016 27.280636,827.765930 15.922919,818.347656 
	C10.955084,814.228149 6.375875,809.639954 1.310088,805.132324 
	C1.000000,790.312439 1.000000,775.624878 0.999993,760.468628 
z"/>
<path fill="#4C4C4C" opacity="1.000000" stroke="none" 
	d="
M111.531464,1.000001 
	C117.262489,4.957436 122.136086,9.624260 127.850647,12.757054 
	C164.655640,32.934017 204.197327,44.816219 245.662292,50.550816 
	C250.931564,51.279552 256.272156,51.789608 261.586029,51.850597 
	C295.897186,52.244423 330.203735,52.400684 364.435791,49.312843 
	C396.415161,46.428200 428.461914,44.193146 460.378601,40.743378 
	C484.217163,38.166752 507.871521,33.927448 531.654114,30.777315 
	C548.494812,28.546669 565.498779,27.457472 582.277710,24.871410 
	C614.814331,19.856688 647.566956,18.649168 680.342346,19.174332 
	C715.592590,19.739147 750.551636,23.280140 783.816101,36.342838 
	C808.756409,46.136703 825.503235,63.646866 833.948547,89.200127 
	C839.749023,106.750931 845.224548,124.470787 852.228943,141.547531 
	C862.625793,166.895172 879.266785,187.982300 899.474304,206.465286 
	C928.352356,232.878769 962.016479,252.297424 994.911377,272.877045 
	C1002.256226,277.472107 1009.482788,282.256378 1016.830566,286.846680 
	C1019.216492,288.337280 1021.815186,289.487488 1024.658203,290.896667 
	C1025.000000,300.020905 1025.000000,309.041779 1024.640381,318.468628 
	C1019.147095,315.557404 1014.049072,312.183624 1008.873962,308.932678 
	C985.327942,294.141418 961.834900,279.263763 938.181152,264.646332 
	C909.069946,246.656357 880.799988,227.659119 857.039185,202.631088 
	C840.676697,185.395828 827.447388,166.160294 818.546143,144.141083 
	C811.307922,126.235764 805.125854,107.897614 797.679810,90.084000 
	C791.344788,74.928413 781.682495,62.081062 767.337891,53.292812 
	C751.063599,43.322327 733.455566,37.100628 714.636292,34.079777 
	C686.125671,29.503288 657.521301,26.863428 628.608704,28.923174 
	C602.218811,30.803209 575.731812,31.707489 549.439331,34.480354 
	C508.717407,38.774990 468.125702,44.303017 427.476349,49.288380 
	C403.053284,52.283699 379.063385,58.218563 354.215942,58.524216 
	C333.775116,58.775665 313.368103,61.090256 292.922638,61.891136 
	C278.637878,62.450695 264.269592,62.699017 250.018860,61.806053 
	C235.112823,60.872032 220.180527,59.084747 205.482147,56.436115 
	C187.727371,53.236725 170.857864,47.055977 154.756729,38.662766 
	C140.753662,31.363237 126.062698,25.363678 112.190140,17.841024 
	C104.306664,13.566063 95.899551,9.313745 91.000000,1.000000 
	C97.687645,1.000000 104.375290,1.000000 111.531464,1.000001 
z"/>
<path fill="#3E3E3E" opacity="1.000000" stroke="none" 
	d="
M1025.000000,414.531342 
	C1023.227356,413.317322 1020.943420,411.933411 1019.759216,409.906891 
	C1003.289001,381.721252 980.378235,359.599182 953.758545,341.393311 
	C932.337891,326.743195 909.928589,313.546082 888.112854,299.464233 
	C864.907776,284.485535 841.093872,270.287933 818.970886,253.833313 
	C786.994812,230.050125 763.609192,199.208649 751.160583,160.843872 
	C746.533936,146.584991 742.253601,132.211151 737.986145,117.839020 
	C733.810303,103.775429 727.911682,90.582298 717.893433,79.711906 
	C707.364563,68.287537 693.956909,61.004726 679.342041,56.540821 
	C660.458679,50.773174 640.857605,48.786911 621.153564,47.992821 
	C558.897400,45.483841 497.619202,54.285194 436.287445,63.288372 
	C391.302338,69.891945 346.206482,76.087906 300.967712,80.489494 
	C272.872620,83.223053 244.391296,83.354080 216.133545,82.646690 
	C190.370697,82.001755 164.584595,79.367096 140.226318,69.346397 
	C122.077499,61.880211 105.384552,52.185940 89.988251,39.965935 
	C81.410934,33.158134 71.458977,28.074402 62.934788,21.209988 
	C55.768715,15.439246 49.771999,8.216395 43.128803,1.318200 
	C48.354931,1.000000 53.709858,1.000000 59.606907,1.346866 
	C66.546837,7.833031 72.315712,14.865182 79.482193,19.913254 
	C91.839302,28.617611 105.003395,36.190655 117.949974,44.038639 
	C126.050491,48.949036 134.051849,54.207905 142.653915,58.072262 
	C171.643631,71.095451 202.294647,77.001579 233.983856,76.890282 
	C254.114426,76.819580 274.285034,76.317184 294.359222,74.898422 
	C321.754883,72.962189 349.167816,70.697060 376.406952,67.255745 
	C415.566315,62.308460 454.542175,55.927486 493.658051,50.612453 
	C539.539917,44.378059 585.524353,39.598370 631.985535,40.870960 
	C657.383545,41.566628 682.073364,45.539600 705.964661,53.944214 
	C723.241272,60.021854 737.190796,70.725983 747.251343,86.306282 
	C756.704529,100.945847 760.959290,117.645653 766.739685,133.771561 
	C771.343933,146.616501 775.694519,159.662735 781.653870,171.890442 
	C798.108765,205.653595 823.412170,232.052994 854.200623,252.866898 
	C881.227722,271.138000 909.114807,288.167664 936.975098,305.167084 
	C966.501343,323.183044 994.958252,342.466858 1019.128479,367.499115 
	C1020.655884,369.080994 1023.023376,369.851837 1025.000000,371.000000 
	C1025.000000,385.354218 1025.000000,399.708466 1025.000000,414.531342 
z"/>
<path fill="#999999" opacity="1.000000" stroke="none" 
	d="
M216.468658,1025.000000 
	C217.992889,1023.913208 219.865204,1022.329102 221.996307,1021.812317 
	C273.308136,1009.372437 324.462616,996.048157 377.152924,990.554443 
	C394.184906,988.778748 411.330719,988.067749 428.432922,987.005554 
	C436.567505,986.500427 444.738129,985.809082 452.864441,986.071106 
	C486.286255,987.148865 519.690674,988.782898 553.114502,989.776062 
	C578.239136,990.522583 603.407532,990.049255 628.512329,991.137756 
	C653.502258,992.221313 678.468567,994.528015 701.185242,1006.619019 
	C709.336121,1010.957397 716.521912,1016.568481 721.875977,1024.683594 
	C553.645752,1025.000000 385.291534,1025.000000 216.468658,1025.000000 
z"/>
<path fill="#464646" opacity="1.000000" stroke="none" 
	d="
M90.532059,1.000000 
	C95.899551,9.313745 104.306664,13.566063 112.190140,17.841024 
	C126.062698,25.363678 140.753662,31.363237 154.756729,38.662766 
	C170.857864,47.055977 187.727371,53.236725 205.482147,56.436115 
	C220.180527,59.084747 235.112823,60.872032 250.018860,61.806053 
	C264.269592,62.699017 278.637878,62.450695 292.922638,61.891136 
	C313.368103,61.090256 333.775116,58.775665 354.215942,58.524216 
	C379.063385,58.218563 403.053284,52.283699 427.476349,49.288380 
	C468.125702,44.303017 508.717407,38.774990 549.439331,34.480354 
	C575.731812,31.707489 602.218811,30.803209 628.608704,28.923174 
	C657.521301,26.863428 686.125671,29.503288 714.636292,34.079777 
	C733.455566,37.100628 751.063599,43.322327 767.337891,53.292812 
	C781.682495,62.081062 791.344788,74.928413 797.679810,90.084000 
	C805.125854,107.897614 811.307922,126.235764 818.546143,144.141083 
	C827.447388,166.160294 840.676697,185.395828 857.039185,202.631088 
	C880.799988,227.659119 909.069946,246.656357 938.181152,264.646332 
	C961.834900,279.263763 985.327942,294.141418 1008.873962,308.932678 
	C1014.049072,312.183624 1019.147095,315.557404 1024.640381,318.937317 
	C1025.000000,327.354218 1025.000000,335.708466 1024.665283,344.425476 
	C1021.428284,342.873993 1018.441589,341.075134 1015.638062,339.025818 
	C1002.473511,329.402679 989.804260,319.022217 976.133362,310.188568 
	C948.716370,292.472748 920.817932,275.497467 893.011902,258.389465 
	C869.717712,244.057434 848.854675,226.788345 830.340088,206.733978 
	C816.812805,192.081787 805.212341,175.939041 797.668152,157.380035 
	C789.514709,137.322235 782.451294,116.822762 774.384155,96.728004 
	C767.766174,80.243057 757.276367,66.375259 741.661072,57.549694 
	C724.718140,47.973766 706.273621,41.944202 687.016174,39.007229 
	C657.261780,34.469372 627.292847,33.509071 597.321411,36.005737 
	C565.972534,38.617146 534.605347,41.324757 503.393799,45.184288 
	C467.193970,49.660648 431.156097,55.445591 395.044617,60.639442 
	C389.273254,61.469524 383.505035,62.433506 377.700348,62.900692 
	C350.486084,65.091003 323.254944,67.070984 296.038788,69.238647 
	C270.094879,71.304977 244.176239,71.909439 218.247665,68.946182 
	C194.076965,66.183838 170.449402,61.200665 148.771011,49.813095 
	C129.480103,39.679661 110.413063,29.052025 91.794250,17.741974 
	C84.741844,13.457965 79.219673,6.654869 73.000000,1.000000 
	C78.688042,1.000000 84.376083,1.000000 90.532059,1.000000 
z"/>
<path fill="#424242" opacity="1.000000" stroke="none" 
	d="
M72.536819,1.000000 
	C79.219673,6.654869 84.741844,13.457965 91.794250,17.741974 
	C110.413063,29.052025 129.480103,39.679661 148.771011,49.813095 
	C170.449402,61.200665 194.076965,66.183838 218.247665,68.946182 
	C244.176239,71.909439 270.094879,71.304977 296.038788,69.238647 
	C323.254944,67.070984 350.486084,65.091003 377.700348,62.900692 
	C383.505035,62.433506 389.273254,61.469524 395.044617,60.639442 
	C431.156097,55.445591 467.193970,49.660648 503.393799,45.184288 
	C534.605347,41.324757 565.972534,38.617146 597.321411,36.005737 
	C627.292847,33.509071 657.261780,34.469372 687.016174,39.007229 
	C706.273621,41.944202 724.718140,47.973766 741.661072,57.549694 
	C757.276367,66.375259 767.766174,80.243057 774.384155,96.728004 
	C782.451294,116.822762 789.514709,137.322235 797.668152,157.380035 
	C805.212341,175.939041 816.812805,192.081787 830.340088,206.733978 
	C848.854675,226.788345 869.717712,244.057434 893.011902,258.389465 
	C920.817932,275.497467 948.716370,292.472748 976.133362,310.188568 
	C989.804260,319.022217 1002.473511,329.402679 1015.638062,339.025818 
	C1018.441589,341.075134 1021.428284,342.873993 1024.665283,344.894104 
	C1025.000000,353.354218 1025.000000,361.708466 1025.000000,370.531342 
	C1023.023376,369.851837 1020.655884,369.080994 1019.128479,367.499115 
	C994.958252,342.466858 966.501343,323.183044 936.975098,305.167084 
	C909.114807,288.167664 881.227722,271.138000 854.200623,252.866898 
	C823.412170,232.052994 798.108765,205.653595 781.653870,171.890442 
	C775.694519,159.662735 771.343933,146.616501 766.739685,133.771561 
	C760.959290,117.645653 756.704529,100.945847 747.251343,86.306282 
	C737.190796,70.725983 723.241272,60.021854 705.964661,53.944214 
	C682.073364,45.539600 657.383545,41.566628 631.985535,40.870960 
	C585.524353,39.598370 539.539917,44.378059 493.658051,50.612453 
	C454.542175,55.927486 415.566315,62.308460 376.406952,67.255745 
	C349.167816,70.697060 321.754883,72.962189 294.359222,74.898422 
	C274.285034,76.317184 254.114426,76.819580 233.983856,76.890282 
	C202.294647,77.001579 171.643631,71.095451 142.653915,58.072262 
	C134.051849,54.207905 126.050491,48.949036 117.949974,44.038639 
	C105.003395,36.190655 91.839302,28.617611 79.482193,19.913254 
	C72.315712,14.865182 66.546837,7.833031 60.074512,1.346866 
	C64.024544,1.000000 68.049088,1.000000 72.536819,1.000000 
z"/>
<path fill="#252525" opacity="1.000000" stroke="none" 
	d="
M1025.000000,616.000000 
	C1025.000000,740.689270 1025.000000,865.378601 1024.739990,990.301025 
	C1023.567444,988.078735 1022.359497,985.690002 1021.786743,983.157654 
	C1013.554565,946.761780 1005.300964,910.370178 997.268494,873.929932 
	C987.809631,831.018677 976.312439,788.503235 972.374084,744.513367 
	C970.911926,728.181335 970.826111,711.934448 974.104309,695.852417 
	C978.977600,671.944885 990.140442,651.118103 1006.573853,633.216248 
	C1012.241577,627.042053 1018.831360,621.714355 1025.000000,616.000000 
z"/>
<path fill="#2C2C2C" opacity="1.000000" stroke="none" 
	d="
M1025.000000,615.541870 
	C1018.831360,621.714355 1012.241577,627.042053 1006.573853,633.216248 
	C990.140442,651.118103 978.977600,671.944885 974.104309,695.852417 
	C970.826111,711.934448 970.911926,728.181335 972.374084,744.513367 
	C976.312439,788.503235 987.809631,831.018677 997.268494,873.929932 
	C1005.300964,910.370178 1013.554565,946.761780 1021.786743,983.157654 
	C1022.359497,985.690002 1023.567444,988.078735 1024.739990,990.767090 
	C1025.000000,1002.229309 1025.000000,1013.458557 1025.000000,1025.000000 
	C1020.319702,1025.000000 1015.632507,1025.000000 1010.438721,1024.589844 
	C1007.383789,1010.763611 1005.027344,997.307739 1002.252869,983.938599 
	C992.033875,934.697510 981.710205,885.477905 971.356262,836.264954 
	C966.455688,812.972229 960.811829,789.817261 956.625977,766.399536 
	C954.031311,751.883789 952.332092,736.984131 952.425232,722.270691 
	C952.531921,705.420593 956.461609,688.986694 964.136292,673.616455 
	C975.802246,650.252686 992.691528,631.155579 1012.060852,614.069702 
	C1015.986328,610.607117 1020.667297,608.000977 1025.000000,605.000000 
	C1025.000000,608.361267 1025.000000,611.722595 1025.000000,615.541870 
z"/>
<path fill="#6F6F6F" opacity="1.000000" stroke="none" 
	d="
M1025.000000,210.531342 
	C1019.769287,207.551559 1014.106262,204.607605 1009.386475,200.562943 
	C993.260315,186.743210 978.037170,171.928009 969.462891,152.011139 
	C962.904419,136.776733 960.032898,121.240852 966.312866,104.632454 
	C972.757202,87.589500 984.765015,76.911171 1000.952698,70.348053 
	C1008.452087,67.307526 1016.434387,65.458061 1024.598877,63.034313 
	C1025.000000,112.020897 1025.000000,161.041794 1025.000000,210.531342 
z"/>
<path fill="#343434" opacity="1.000000" stroke="none" 
	d="
M1025.000000,594.000000 
	C1025.000000,596.041687 1025.000000,598.083313 1024.648071,600.634094 
	C1022.392883,602.129822 1020.314636,602.880066 1018.612976,604.139160 
	C999.184143,618.515564 982.628845,635.757996 968.371765,655.210144 
	C951.545410,678.167664 941.191223,703.589478 943.279236,732.402954 
	C944.536621,749.754150 947.569275,767.090576 951.228882,784.127686 
	C957.136414,811.630554 964.453064,838.827332 970.731689,866.254761 
	C975.858276,888.649841 980.634644,911.135193 985.031494,933.684753 
	C990.956421,964.070740 996.368042,994.556885 1002.000000,1025.000000 
	C997.643127,1025.000000 993.286194,1025.000000 988.456177,1024.572998 
	C986.985718,1017.906067 985.949890,1011.672058 984.997192,1005.425293 
	C978.065979,959.980408 970.166260,914.716370 958.991882,870.093506 
	C949.492737,832.160767 939.676208,794.307678 930.109619,756.391663 
	C922.255798,725.263672 929.550476,697.200134 947.329773,671.142456 
	C962.913696,648.302490 981.358215,628.082153 1002.427246,610.292053 
	C1009.496704,604.322754 1017.450439,599.400757 1025.000000,594.000000 
z"/>
<path fill="#6F6F6F" opacity="1.000000" stroke="none" 
	d="
M595.531372,1.000000 
	C593.908508,1.899648 591.888489,3.323827 589.714783,3.619763 
	C560.021973,7.662346 530.317322,11.623543 500.587555,15.383669 
	C496.682373,15.877584 492.622498,15.013408 488.633728,15.004090 
	C468.510284,14.957086 448.372009,14.504028 428.267151,15.117975 
	C406.990326,15.767710 385.749634,17.539705 364.484680,18.660749 
	C352.853760,19.273903 341.201508,19.470903 329.565552,20.001871 
	C300.878510,21.310909 272.293182,20.305902 244.066971,14.853414 
	C230.529083,12.238281 217.251587,8.248858 203.904953,4.698448 
	C201.926788,4.172229 200.218460,2.631706 198.192642,1.280226 
	C330.354218,1.000000 462.708466,1.000000 595.531372,1.000000 
z"/>
<path fill="#393939" opacity="1.000000" stroke="none" 
	d="
M973.444214,1025.000000 
	C969.908447,1004.772888 966.920532,984.529297 963.704407,964.321960 
	C956.127747,916.716309 944.990356,869.929016 930.318604,824.028931 
	C924.448975,805.665771 917.338135,787.700745 910.855042,769.532043 
	C902.528015,746.196167 901.923340,723.661987 915.747314,701.626465 
	C931.400146,676.675781 949.849792,654.063965 969.866760,632.597961 
	C984.543030,616.859375 1000.161865,602.214844 1018.106750,590.219299 
	C1020.005432,588.950134 1022.213989,588.144287 1024.639404,587.061768 
	C1025.000000,588.066711 1025.000000,589.133362 1024.647827,590.672241 
	C1022.252136,592.221741 1020.068420,593.097839 1018.186951,594.407898 
	C1000.483582,606.735229 984.983643,621.546570 970.280518,637.232788 
	C954.869812,653.674011 940.888184,671.197449 929.285706,690.595154 
	C917.592285,710.144836 913.961548,731.297791 919.185913,753.079102 
	C925.349854,778.777710 933.175415,804.093384 940.746338,829.435913 
	C959.873108,893.460083 971.273865,959.052612 981.000000,1025.000000 
	C978.629456,1025.000000 976.258850,1025.000000 973.444214,1025.000000 
z"/>
<path fill="#303030" opacity="1.000000" stroke="none" 
	d="
M1002.444153,1025.000000 
	C996.368042,994.556885 990.956421,964.070740 985.031494,933.684753 
	C980.634644,911.135193 975.858276,888.649841 970.731689,866.254761 
	C964.453064,838.827332 957.136414,811.630554 951.228882,784.127686 
	C947.569275,767.090576 944.536621,749.754150 943.279236,732.402954 
	C941.191223,703.589478 951.545410,678.167664 968.371765,655.210144 
	C982.628845,635.757996 999.184143,618.515564 1018.612976,604.139160 
	C1020.314636,602.880066 1022.392883,602.129822 1024.648071,601.071594 
	C1025.000000,602.066711 1025.000000,603.133362 1025.000000,604.599976 
	C1020.667297,608.000977 1015.986328,610.607117 1012.060852,614.069702 
	C992.691528,631.155579 975.802246,650.252686 964.136292,673.616455 
	C956.461609,688.986694 952.531921,705.420593 952.425232,722.270691 
	C952.332092,736.984131 954.031311,751.883789 956.625977,766.399536 
	C960.811829,789.817261 966.455688,812.972229 971.356262,836.264954 
	C981.710205,885.477905 992.033875,934.697510 1002.252869,983.938599 
	C1005.027344,997.307739 1007.383789,1010.763611 1009.966064,1024.589844 
	C1007.629456,1025.000000 1005.258850,1025.000000 1002.444153,1025.000000 
z"/>
<path fill="#363636" opacity="1.000000" stroke="none" 
	d="
M981.437500,1025.000000 
	C971.273865,959.052612 959.873108,893.460083 940.746338,829.435913 
	C933.175415,804.093384 925.349854,778.777710 919.185913,753.079102 
	C913.961548,731.297791 917.592285,710.144836 929.285706,690.595154 
	C940.888184,671.197449 954.869812,653.674011 970.280518,637.232788 
	C984.983643,621.546570 1000.483582,606.735229 1018.186951,594.407898 
	C1020.068420,593.097839 1022.252136,592.221741 1024.647827,591.072144 
	C1025.000000,591.750000 1025.000000,592.500000 1025.000000,593.625000 
	C1017.450439,599.400757 1009.496704,604.322754 1002.427246,610.292053 
	C981.358215,628.082153 962.913696,648.302490 947.329773,671.142456 
	C929.550476,697.200134 922.255798,725.263672 930.109619,756.391663 
	C939.676208,794.307678 949.492737,832.160767 958.991882,870.093506 
	C970.166260,914.716370 978.065979,959.980408 984.997192,1005.425293 
	C985.949890,1011.672058 986.985718,1017.906067 987.991577,1024.572998 
	C985.958313,1025.000000 983.916687,1025.000000 981.437500,1025.000000 
z"/>
<path fill="#999999" opacity="1.000000" stroke="none" 
	d="
M0.999996,1003.468750 
	C5.987957,1005.136902 10.925082,1007.403503 15.974628,1009.383240 
	C26.008966,1013.317505 36.126617,1017.039246 46.159409,1020.977356 
	C48.415115,1021.862854 50.463726,1023.275879 52.803837,1024.723022 
	C35.769855,1025.000000 18.539711,1025.000000 1.000000,1025.000000 
	C1.000000,1017.982239 1.000000,1010.959900 0.999996,1003.468750 
z"/>
<path fill="#6F6F6F" opacity="1.000000" stroke="none" 
	d="
M525.251404,514.184509 
	C524.606018,514.948792 523.960571,515.713135 522.827026,516.840454 
	C520.829956,519.101807 519.320984,521.000122 517.812012,522.898376 
	C517.585144,523.091797 517.369690,523.297241 516.689697,523.825073 
	C513.929565,525.035889 511.711609,526.423645 509.348999,526.743774 
	C502.711304,527.642883 501.096405,526.024536 500.964172,519.278076 
	C500.915466,516.793091 500.793365,514.309570 500.704712,511.825378 
	C501.454071,510.624725 502.203461,509.424103 503.387817,507.976501 
	C506.264954,505.899048 508.465607,503.410339 511.209961,502.403656 
	C514.693542,501.125702 518.679260,500.449249 522.316284,500.817871 
	C523.427307,500.930481 524.341675,505.287079 524.902954,507.799103 
	C525.361450,509.851074 525.160156,512.050476 525.251404,514.184509 
M517.997070,517.453308 
	C518.671936,516.716553 519.422241,516.035034 520.008484,515.233521 
	C522.410095,511.950348 522.823059,505.548676 520.416565,504.147522 
	C516.511536,501.873840 513.067932,503.376160 510.134613,506.405609 
	C508.860321,507.721649 507.500061,508.965607 506.327240,510.366547 
	C503.609650,513.612793 503.191010,519.921692 505.472473,521.903442 
	C507.884918,523.998962 512.625305,522.893555 516.099426,519.420776 
	C516.570557,518.949829 517.024109,518.461365 517.997070,517.453308 
z"/>
<path fill="#545454" opacity="1.000000" stroke="none" 
	d="
M500.399719,511.987030 
	C500.793365,514.309570 500.915466,516.793091 500.964172,519.278076 
	C501.096405,526.024536 502.711304,527.642883 509.348999,526.743774 
	C511.711609,526.423645 513.929565,525.035889 516.540894,523.991699 
	C515.747375,525.462158 514.626465,527.076416 512.783142,528.885620 
	C507.353088,529.075928 502.645447,529.071228 497.937805,529.066589 
	C497.678955,526.974609 497.420074,524.882568 497.102631,522.403320 
	C498.060913,518.726929 499.077820,515.437805 500.399719,511.987030 
z"/>
<path fill="#464646" opacity="1.000000" stroke="none" 
	d="
M498.025604,529.314209 
	C502.645447,529.071228 507.353088,529.075928 512.524170,529.095215 
	C508.112701,531.997437 503.144257,531.806274 498.025604,529.314209 
z"/>
<path fill="#545454" opacity="1.000000" stroke="none" 
	d="
M518.091064,522.759521 
	C519.320984,521.000122 520.829956,519.101807 522.659668,517.090515 
	C522.422852,518.118713 521.865295,519.259949 521.135315,520.668213 
	C520.098633,521.497070 519.234375,522.058838 518.091064,522.759521 
z"/>
<path fill="#393939" opacity="1.000000" stroke="none" 
	d="
M115.544968,505.362366 
	C129.484863,511.772980 141.572037,520.403931 152.604462,530.306396 
	C177.848160,552.964417 198.893311,579.365295 219.579803,606.134888 
	C247.193451,641.868774 268.550262,681.502563 292.073273,719.801514 
	C302.279236,736.418152 306.852631,755.008362 312.408936,773.299316 
	C312.780029,774.520996 312.800507,775.982239 312.539612,777.239807 
	C311.385010,782.805603 297.533203,792.085449 291.875305,791.270447 
	C288.421082,790.772827 284.936615,790.006714 281.480133,790.076233 
	C243.987930,790.830566 208.280273,780.875122 172.707748,771.125427 
	C148.768005,764.564026 129.041565,749.768188 109.584999,734.578857 
	C97.599991,725.222412 91.187073,712.359375 83.451721,700.320068 
	C77.214348,690.612183 69.831924,681.460449 66.621048,669.846436 
	C63.481194,658.489258 58.291752,647.665833 55.569427,636.234863 
	C52.494293,623.322510 51.464485,609.937988 49.006985,596.859985 
	C45.555141,578.490417 49.730579,560.398438 50.504951,542.193054 
	C50.644066,538.922546 52.702408,535.639099 54.248547,532.548767 
	C55.883625,529.280640 58.483437,526.431702 59.757282,523.058105 
	C63.967793,511.907135 73.568901,506.012390 83.268806,502.090332 
	C89.692924,499.492798 98.169258,501.631775 105.681702,502.223633 
	C108.907333,502.477753 112.018379,504.186432 115.544968,505.362366 
M221.221451,640.265625 
	C217.666855,635.650330 214.239594,630.930115 210.535767,626.437866 
	C193.906281,606.268677 177.326584,585.992310 155.159805,571.447632 
	C146.184174,565.558289 136.910736,561.144531 125.447289,560.391296 
	C112.816429,559.561157 104.800674,566.215088 96.571556,573.276123 
	C92.437759,576.823120 91.112778,582.040466 90.889008,587.720032 
	C90.450554,598.848328 89.128532,609.940186 88.595650,621.067322 
	C88.393578,625.286743 88.834442,629.699219 89.901016,633.783813 
	C92.211342,642.631531 95.280579,651.278320 97.730728,660.093079 
	C100.466164,669.934143 103.464478,679.492737 110.776436,687.200195 
	C115.344490,692.015320 119.180374,697.517029 123.481583,702.594849 
	C135.570496,716.866455 148.148849,730.353943 166.133011,737.720276 
	C181.639847,744.071960 196.880753,750.421387 214.209244,749.110291 
	C222.319458,748.496704 230.579391,748.353821 238.654312,749.164490 
	C248.686707,750.171753 254.048737,746.757629 258.401764,737.213196 
	C262.795837,727.578979 263.847504,719.731262 259.024780,710.028748 
	C247.344299,686.529419 238.985703,661.282898 221.221451,640.265625 
z"/>
<path fill="#545454" opacity="1.000000" stroke="none" 
	d="
M525.556030,514.168579 
	C525.160156,512.050476 525.361450,509.851074 524.902954,507.799103 
	C524.341675,505.287079 523.427307,500.930481 522.316284,500.817871 
	C518.679260,500.449249 514.693542,501.125702 511.209961,502.403656 
	C508.465607,503.410339 506.264954,505.899048 503.551636,507.728882 
	C506.052368,504.339569 508.824219,500.950867 512.248596,497.301788 
	C515.938477,496.731567 518.975891,496.421753 522.013245,496.111908 
	C522.749756,496.127014 523.486206,496.142090 524.795776,496.460815 
	C525.939026,502.517548 526.509216,508.270660 527.079407,514.023743 
	C526.673157,514.066711 526.266968,514.109680 525.556030,514.168579 
z"/>
<path fill="#464646" opacity="1.000000" stroke="none" 
	d="
M527.330933,513.750000 
	C526.509216,508.270660 525.939026,502.517548 525.164001,496.455261 
	C526.203552,496.749115 528.531372,497.368439 528.522583,497.952545 
	C528.444458,503.130676 527.952332,508.302582 527.330933,513.750000 
z"/>
<path fill="#464646" opacity="1.000000" stroke="none" 
	d="
M521.653809,495.957977 
	C518.975891,496.421753 515.938477,496.731567 512.462402,497.050812 
	C515.113892,496.641479 518.204163,496.222778 521.653809,495.957977 
z"/>
<path fill="#858585" opacity="1.000000" stroke="none" 
	d="
M517.741455,517.717163 
	C517.024109,518.461365 516.570557,518.949829 516.099426,519.420776 
	C512.625305,522.893555 507.884918,523.998962 505.472473,521.903442 
	C503.191010,519.921692 503.609650,513.612793 506.327240,510.366547 
	C507.500061,508.965607 508.860321,507.721649 510.134613,506.405609 
	C513.067932,503.376160 516.511536,501.873840 520.416565,504.147522 
	C522.823059,505.548676 522.410095,511.950348 520.008484,515.233521 
	C519.422241,516.035034 518.671936,516.716553 517.741455,517.717163 
M517.149963,506.950531 
	C511.530090,507.146698 507.039612,511.023102 507.148590,515.609253 
	C507.215363,518.419556 508.450867,520.036743 511.482208,519.502808 
	C516.460999,518.625793 519.691956,512.272095 517.149963,506.950531 
z"/>
<path fill="#363636" opacity="1.000000" stroke="none" 
	d="
M221.431702,640.556458 
	C238.985703,661.282898 247.344299,686.529419 259.024780,710.028748 
	C263.847504,719.731262 262.795837,727.578979 258.401764,737.213196 
	C254.048737,746.757629 248.686707,750.171753 238.654312,749.164490 
	C230.579391,748.353821 222.319458,748.496704 214.209244,749.110291 
	C196.880753,750.421387 181.639847,744.071960 166.133011,737.720276 
	C148.148849,730.353943 135.570496,716.866455 123.481583,702.594849 
	C119.180374,697.517029 115.344490,692.015320 110.776436,687.200195 
	C103.464478,679.492737 100.466164,669.934143 97.730728,660.093079 
	C95.280579,651.278320 92.211342,642.631531 89.901016,633.783813 
	C88.834442,629.699219 88.393578,625.286743 88.595650,621.067322 
	C89.128532,609.940186 90.450554,598.848328 90.889008,587.720032 
	C91.112778,582.040466 92.437759,576.823120 96.571556,573.276123 
	C104.800674,566.215088 112.816429,559.561157 125.447289,560.391296 
	C136.910736,561.144531 146.184174,565.558289 155.159805,571.447632 
	C177.326584,585.992310 193.906281,606.268677 210.535767,626.437866 
	C214.239594,630.930115 217.666855,635.650330 221.431702,640.556458 
z"/>
<path fill="#999999" opacity="1.000000" stroke="none" 
	d="
M517.444092,507.123352 
	C519.691956,512.272095 516.460999,518.625793 511.482208,519.502808 
	C508.450867,520.036743 507.215363,518.419556 507.148590,515.609253 
	C507.039612,511.023102 511.530090,507.146698 517.444092,507.123352 
z"/>
</svg>